<svg width="38" height="38" viewBox="0 0 38 38" fill="none" xmlns="http://www.w3.org/2000/svg">
<path d="M20.1874 27.4722L16.9973 36.1311C16.9033 36.386 16.7335 36.6059 16.5107 36.7613C16.2879 36.9167 16.0227 37 15.7511 37C15.4794 37 15.2143 36.9167 14.9915 36.7613C14.7687 36.6059 14.5988 36.386 14.5049 36.1311L11.3148 27.4722C11.2484 27.2919 11.1436 27.1281 11.0077 26.9923C10.8719 26.8564 10.7081 26.7516 10.5278 26.6852L1.86893 23.4951C1.61403 23.4012 1.39406 23.2313 1.23868 23.0085C1.08331 22.7857 1 22.5206 1 22.2489C1 21.9772 1.08331 21.7121 1.23868 21.4893C1.39406 21.2665 1.61403 21.0966 1.86893 21.0027L10.5278 17.8126C10.7081 17.7462 10.8719 17.6414 11.0077 17.5055C11.1436 17.3697 11.2484 17.2059 11.3148 17.0256L14.5049 8.36673C14.5988 8.11183 14.7687 7.89186 14.9915 7.73648C15.2143 7.58111 15.4794 7.4978 15.7511 7.4978C16.0227 7.4978 16.2879 7.58111 16.5107 7.73648C16.7335 7.89186 16.9033 8.11183 16.9973 8.36673L20.1874 17.0256C20.2538 17.2059 20.3586 17.3697 20.4945 17.5055C20.6303 17.6414 20.7941 17.7462 20.9744 17.8126L29.6333 21.0027C29.8882 21.0966 30.1081 21.2665 30.2635 21.4893C30.4189 21.7121 30.5022 21.9772 30.5022 22.2489C30.5022 22.5206 30.4189 22.7857 30.2635 23.0085C30.1081 23.2313 29.8882 23.4012 29.6333 23.4951L20.9744 26.6852C20.7941 26.7516 20.6303 26.8564 20.4945 26.9923C20.3586 27.1281 20.2538 27.2919 20.1874 27.4722V27.4722Z" stroke="#27AE60" stroke-width="2" stroke-linecap="round" stroke-linejoin="round"/>
<path d="M26.3755 1V8.96828" stroke="#333333" stroke-width="2" stroke-linecap="round" stroke-linejoin="round"/>
<path d="M30.3599 4.98413H22.3916" stroke="#333333" stroke-width="2" stroke-linecap="round" stroke-linejoin="round"/>
<path d="M34.3438 10.2964V15.6086" stroke="#333333" stroke-width="2" stroke-linecap="round" stroke-linejoin="round"/>
<path d="M36.9997 12.9524H31.6875" stroke="#333333" stroke-width="2" stroke-linecap="round" stroke-linejoin="round"/>
</svg>
