<svg width="27" height="34" viewBox="0 0 27 34" fill="none" xmlns="http://www.w3.org/2000/svg">
<path d="M7.15405 33H19.4617" stroke="#333333" stroke-width="2" stroke-linecap="round" stroke-linejoin="round"/>
<path d="M5.72364 23.0018C4.26017 21.8588 3.07483 20.3989 2.25672 18.7319C1.4386 17.0649 1.009 15.2341 1.00019 13.3772C0.963325 6.70609 6.34153 1.16054 13.0109 1.00357C15.5953 0.941339 18.1337 1.69444 20.266 3.15604C22.3983 4.61764 24.0163 6.71354 24.8904 9.14643C25.7645 11.5793 25.8504 14.2257 25.1359 16.7101C24.4213 19.1946 22.9427 21.391 20.9096 22.9877C20.4618 23.3347 20.0987 23.7789 19.8479 24.2868C19.597 24.7947 19.4649 25.3529 19.4615 25.9194L19.4615 26.8462C19.4615 27.1726 19.3319 27.4857 19.101 27.7165C18.8702 27.9473 18.5572 28.0769 18.2308 28.0769H8.38458C8.05816 28.0769 7.74512 27.9473 7.5143 27.7165C7.28349 27.4857 7.15382 27.1726 7.15381 26.8462L7.1538 25.9183C7.1524 25.3555 7.0229 24.8004 6.77511 24.2951C6.52732 23.7898 6.16774 23.3475 5.72364 23.0018V23.0018Z" stroke="#27AE60" stroke-width="2" stroke-linecap="round" stroke-linejoin="round"/>
<path d="M14.5571 6.0437C16.0625 6.29959 17.4513 7.01658 18.5318 8.09567C19.6122 9.17475 20.3309 10.5627 20.5886 12.0678" stroke="#333333" stroke-width="2" stroke-linecap="round" stroke-linejoin="round"/>
</svg>
