<svg width="17" height="16" viewBox="0 0 17 16" fill="none" xmlns="http://www.w3.org/2000/svg">
<path d="M10.3601 12.7334L9.18204 14.6918C9.1255 14.7858 9.04553 14.8636 8.9499 14.9176C8.85427 14.9716 8.74625 15 8.63636 15C8.52647 15 8.41845 14.9716 8.32283 14.9176C8.2272 14.8636 8.14722 14.7858 8.09069 14.6918L6.91265 12.7334C6.85611 12.6395 6.77613 12.5617 6.6805 12.5077C6.58488 12.4537 6.47686 12.4253 6.36697 12.4253H1.63636C1.46759 12.4253 1.30573 12.3584 1.18639 12.2394C1.06705 12.1203 1 11.9589 1 11.7905V1.63474C1 1.4664 1.06705 1.30495 1.18639 1.18591C1.30573 1.06687 1.46759 1 1.63636 1H15.6364C15.8051 1 15.967 1.06687 16.0863 1.18591C16.2057 1.30495 16.2727 1.4664 16.2727 1.63474V11.7906C16.2727 11.8739 16.2563 11.9565 16.2243 12.0335C16.1923 12.1105 16.1454 12.1805 16.0863 12.2394C16.0272 12.2983 15.9571 12.3451 15.8799 12.377C15.8027 12.4089 15.7199 12.4253 15.6364 12.4253L10.9058 12.4253C10.7959 12.4253 10.6879 12.4537 10.5922 12.5077C10.4966 12.5617 10.4166 12.6395 10.3601 12.7334Z" stroke="#626262" stroke-width="1.4" stroke-linecap="round" stroke-linejoin="round"/>
<path d="M8.63619 7.66472C9.16337 7.66472 9.59073 7.23844 9.59073 6.71261C9.59073 6.18677 9.16337 5.7605 8.63619 5.7605C8.10901 5.7605 7.68164 6.18677 7.68164 6.71261C7.68164 7.23844 8.10901 7.66472 8.63619 7.66472Z" fill="#626262"/>
<path d="M4.81783 7.66472C5.34501 7.66472 5.77237 7.23844 5.77237 6.71261C5.77237 6.18677 5.34501 5.7605 4.81783 5.7605C4.29065 5.7605 3.86328 6.18677 3.86328 6.71261C3.86328 7.23844 4.29065 7.66472 4.81783 7.66472Z" fill="#626262"/>
<path d="M12.4545 7.66472C12.9817 7.66472 13.4091 7.23844 13.4091 6.71261C13.4091 6.18677 12.9817 5.7605 12.4545 5.7605C11.9274 5.7605 11.5 6.18677 11.5 6.71261C11.5 7.23844 11.9274 7.66472 12.4545 7.66472Z" fill="#626262"/>
</svg>
