<svg width="20" height="18" viewBox="0 0 20 18" fill="none" xmlns="http://www.w3.org/2000/svg">
<path d="M6.30639 9.79451L14.2932 16.8229C14.3856 16.9042 14.4975 16.9601 14.618 16.9851C14.7386 17.0102 14.8635 17.0035 14.9807 16.9657C15.0978 16.9279 15.2032 16.8604 15.2863 16.7696C15.3695 16.6789 15.4277 16.5681 15.4552 16.4481L18.7962 1.86931C18.8251 1.74327 18.819 1.61172 18.7787 1.48886C18.7383 1.36601 18.6652 1.25649 18.5672 1.17211C18.4692 1.08773 18.3501 1.03169 18.2226 1.01004C18.0951 0.988379 17.9641 1.00192 17.8437 1.04921L1.45076 7.48931C1.30789 7.54543 1.18704 7.64631 1.10628 7.77685C1.02553 7.90739 0.989218 8.06057 1.00278 8.21347C1.01634 8.36637 1.07905 8.51076 1.18152 8.62505C1.28399 8.73934 1.42071 8.81737 1.57123 8.84748L6.30639 9.79451Z" stroke="white" stroke-width="1.5" stroke-linecap="round" stroke-linejoin="round"/>
<path d="M6.3064 9.79445L18.3964 1.06281" stroke="white" stroke-width="1.5" stroke-linecap="round" stroke-linejoin="round"/>
<path d="M10.2952 13.3048L7.51945 16.0805C7.42007 16.1799 7.29345 16.2476 7.15561 16.275C7.01777 16.3024 6.8749 16.2883 6.74506 16.2346C6.61521 16.1808 6.50423 16.0897 6.42615 15.9728C6.34807 15.856 6.3064 15.7186 6.3064 15.5781V9.79462" stroke="white" stroke-width="1.5" stroke-linecap="round" stroke-linejoin="round"/>
</svg>
