<svg width="30" height="22" viewBox="0 0 30 22" fill="none" xmlns="http://www.w3.org/2000/svg">
<mask id="path-1-outside-1_1256_1824" maskUnits="userSpaceOnUse" x="0" y="0" width="30" height="22" fill="black">
<rect fill="white" width="30" height="22"/>
<path fill-rule="evenodd" clip-rule="evenodd" d="M18.8633 1C20.0472 1 21.0069 1.95972 21.0069 3.1436V18.8633C21.0069 20.0472 20.0472 21.0069 18.8633 21.0069H3.1436C1.95972 21.0069 1 20.0472 1 18.8633V3.1436C1 1.95972 1.95972 1 3.1436 1H18.8633ZM29.4186 4.12684C29.5255 4.33121 29.5813 4.55842 29.5813 4.78904V16.8732C29.5813 17.6624 28.9415 18.3022 28.1522 18.3022C27.9219 18.3022 27.695 18.2466 27.4908 18.1399L23.865 16.2469V5.41821L27.49 3.52266C28.1894 3.15694 29.0529 3.42744 29.4186 4.12684ZM11.0034 3.85817C7.05719 3.85817 3.85812 7.05724 3.85812 11.0035C3.85812 14.9498 7.05719 18.1488 11.0034 18.1488C14.9497 18.1488 18.1488 14.9498 18.1488 11.0035C18.1488 7.05724 14.9497 3.85817 11.0034 3.85817ZM11.0034 6.7163C13.3712 6.7163 15.2906 8.63574 15.2906 11.0035C15.2906 13.3712 13.3712 15.2907 11.0034 15.2907C8.63569 15.2907 6.71625 13.3712 6.71625 11.0035C6.71625 8.63574 8.63569 6.7163 11.0034 6.7163Z"/>
</mask>
<path fill-rule="evenodd" clip-rule="evenodd" d="M18.8633 1C20.0472 1 21.0069 1.95972 21.0069 3.1436V18.8633C21.0069 20.0472 20.0472 21.0069 18.8633 21.0069H3.1436C1.95972 21.0069 1 20.0472 1 18.8633V3.1436C1 1.95972 1.95972 1 3.1436 1H18.8633ZM29.4186 4.12684C29.5255 4.33121 29.5813 4.55842 29.5813 4.78904V16.8732C29.5813 17.6624 28.9415 18.3022 28.1522 18.3022C27.9219 18.3022 27.695 18.2466 27.4908 18.1399L23.865 16.2469V5.41821L27.49 3.52266C28.1894 3.15694 29.0529 3.42744 29.4186 4.12684ZM11.0034 3.85817C7.05719 3.85817 3.85812 7.05724 3.85812 11.0035C3.85812 14.9498 7.05719 18.1488 11.0034 18.1488C14.9497 18.1488 18.1488 14.9498 18.1488 11.0035C18.1488 7.05724 14.9497 3.85817 11.0034 3.85817ZM11.0034 6.7163C13.3712 6.7163 15.2906 8.63574 15.2906 11.0035C15.2906 13.3712 13.3712 15.2907 11.0034 15.2907C8.63569 15.2907 6.71625 13.3712 6.71625 11.0035C6.71625 8.63574 8.63569 6.7163 11.0034 6.7163Z" fill="#FEFFFE"/>
<path d="M29.4186 4.12684L29.6719 3.9944L29.4186 4.12684ZM27.4908 18.1399L27.3585 18.3933L27.4908 18.1399ZM23.865 16.2469H23.5792V16.42L23.7328 16.5002L23.865 16.2469ZM23.865 5.41821L23.7326 5.16493L23.5792 5.24513V5.41821H23.865ZM27.49 3.52266L27.6225 3.77594L27.49 3.52266ZM18.8633 1.28581C19.8893 1.28581 20.7211 2.11757 20.7211 3.1436H21.2927C21.2927 1.80187 20.205 0.714187 18.8633 0.714187V1.28581ZM20.7211 3.1436V18.8633H21.2927V3.1436H20.7211ZM20.7211 18.8633C20.7211 19.8893 19.8893 20.7211 18.8633 20.7211V21.2927C20.205 21.2927 21.2927 20.205 21.2927 18.8633H20.7211ZM18.8633 20.7211H3.1436V21.2927H18.8633V20.7211ZM3.1436 20.7211C2.11757 20.7211 1.28581 19.8893 1.28581 18.8633H0.714187C0.714187 20.205 1.80187 21.2927 3.1436 21.2927V20.7211ZM1.28581 18.8633V3.1436H0.714187V18.8633H1.28581ZM1.28581 3.1436C1.28581 2.11757 2.11757 1.28581 3.1436 1.28581V0.714187C1.80187 0.714187 0.714187 1.80187 0.714187 3.1436H1.28581ZM3.1436 1.28581H18.8633V0.714187H3.1436V1.28581ZM29.1653 4.25928C29.2508 4.42278 29.2955 4.60454 29.2955 4.78904H29.8671C29.8671 4.51229 29.8001 4.23965 29.6719 3.9944L29.1653 4.25928ZM29.2955 4.78904V16.8732H29.8671V4.78904H29.2955ZM29.2955 16.8732C29.2955 17.5046 28.7836 18.0164 28.1522 18.0164V18.588C29.0993 18.588 29.8671 17.8203 29.8671 16.8732H29.2955ZM28.1522 18.0164C27.968 18.0164 27.7864 17.9719 27.6231 17.8866L27.3585 18.3933C27.6035 18.5212 27.8758 18.588 28.1522 18.588V18.0164ZM27.6231 17.8866L23.9973 15.9935L23.7328 16.5002L27.3585 18.3933L27.6231 17.8866ZM24.1508 16.2469V5.41821H23.5792V16.2469H24.1508ZM23.9975 5.67148L27.6225 3.77594L27.3576 3.26939L23.7326 5.16493L23.9975 5.67148ZM27.6225 3.77594C28.182 3.48336 28.8728 3.69976 29.1653 4.25928L29.6719 3.9944C29.233 3.15512 28.1969 2.83052 27.3576 3.26939L27.6225 3.77594ZM11.0034 3.57235C6.89934 3.57235 3.5723 6.89939 3.5723 11.0035H4.14393C4.14393 7.21509 7.21504 4.14398 11.0034 4.14398V3.57235ZM3.5723 11.0035C3.5723 15.1076 6.89934 18.4346 11.0034 18.4346V17.863C7.21504 17.863 4.14393 14.7919 4.14393 11.0035H3.5723ZM11.0034 18.4346C15.1076 18.4346 18.4346 15.1076 18.4346 11.0035H17.863C17.863 14.7919 14.7919 17.863 11.0034 17.863V18.4346ZM18.4346 11.0035C18.4346 6.89939 15.1076 3.57235 11.0034 3.57235V4.14398C14.7919 4.14398 17.863 7.21509 17.863 11.0035H18.4346ZM11.0034 7.00211C13.2133 7.00211 15.0048 8.79359 15.0048 11.0035H15.5765C15.5765 8.47789 13.529 6.43049 11.0034 6.43049V7.00211ZM15.0048 11.0035C15.0048 13.2134 13.2133 15.0049 11.0034 15.0049V15.5765C13.529 15.5765 15.5765 13.5291 15.5765 11.0035H15.0048ZM11.0034 15.0049C8.79354 15.0049 7.00206 13.2134 7.00206 11.0035H6.43043C6.43043 13.5291 8.47784 15.5765 11.0034 15.5765V15.0049ZM7.00206 11.0035C7.00206 8.79359 8.79354 7.00211 11.0034 7.00211V6.43049C8.47784 6.43049 6.43043 8.47789 6.43043 11.0035H7.00206Z" fill="black" fill-opacity="0.2" mask="url(#path-1-outside-1_1256_1824)"/>
</svg>
