<svg width="44" height="44" viewBox="0 0 44 44" fill="none" xmlns="http://www.w3.org/2000/svg">
<path d="M28.4375 31H16.0625" stroke="#333333" stroke-width="2" stroke-linecap="round" stroke-linejoin="round"/>
<path d="M7.8125 32C8.36478 32 8.8125 31.5523 8.8125 31C8.8125 30.4477 8.36478 30 7.8125 30V32ZM3 29.625H2H3ZM4 23V22H2V23H4ZM7.8125 30H4.375V32H7.8125V30ZM4.375 30C4.27554 30 4.18016 29.9605 4.10983 29.8902L2.69562 31.3044C3.14102 31.7498 3.74511 32 4.375 32V30ZM4.10983 29.8902C4.03951 29.8198 4 29.7245 4 29.625H2C2 30.2549 2.25022 30.859 2.69562 31.3044L4.10983 29.8902ZM4 29.625V23H2V29.625H4Z" fill="#333333"/>
<path d="M11.9375 35.125C14.2157 35.125 16.0625 33.2782 16.0625 31C16.0625 28.7218 14.2157 26.875 11.9375 26.875C9.65933 26.875 7.8125 28.7218 7.8125 31C7.8125 33.2782 9.65933 35.125 11.9375 35.125Z" stroke="#27AE60" stroke-width="2" stroke-miterlimit="10"/>
<path d="M3 22.5H2V23.5H3V22.5ZM4.375 9V10V9ZM30.5 9H31.5C31.5 8.44772 31.0523 8 30.5 8V9ZM30.5 22.5V23.5H31.5V22.5H30.5ZM4 22.5V10.375H2V22.5H4ZM4 10.375C4 10.2755 4.03951 10.1802 4.10983 10.1098L2.69562 8.69562C2.25022 9.14102 2 9.74511 2 10.375H4ZM4.10983 10.1098C4.18016 10.0395 4.27554 10 4.375 10V8C3.74511 8 3.14102 8.25022 2.69562 8.69562L4.10983 10.1098ZM4.375 10H30.5V8H4.375V10ZM29.5 9V22.5H31.5V9H29.5ZM3 23.5H16.75V21.5H3V23.5ZM16.75 23.5H30.5V21.5H16.75V23.5Z" fill="#27AE60"/>
<path d="M41.5 18.625H30.5V11.75H37.8191C38.0939 11.75 38.3624 11.8323 38.5899 11.9864C38.8175 12.1405 38.9937 12.3592 39.0957 12.6143L41.5 18.625Z" stroke="#333333" stroke-width="2" stroke-linecap="round" stroke-linejoin="round"/>
<path d="M30.5 27.4276V18.625H41.5V29.625C41.5 29.9897 41.3551 30.3394 41.0973 30.5973C40.8394 30.8551 40.4897 31 40.125 31H36.6875" stroke="#333333" stroke-width="2" stroke-linecap="round" stroke-linejoin="round"/>
<path d="M32.5625 35.125C34.8407 35.125 36.6875 33.2782 36.6875 31C36.6875 28.7218 34.8407 26.875 32.5625 26.875C30.2843 26.875 28.4375 28.7218 28.4375 31C28.4375 33.2782 30.2843 35.125 32.5625 35.125Z" stroke="#27AE60" stroke-width="2" stroke-miterlimit="10"/>
</svg>
