<svg width="32" height="32" viewBox="0 0 32 32" fill="none" xmlns="http://www.w3.org/2000/svg">
<mask id="mask0_1256_1434" style="mask-type:alpha" maskUnits="userSpaceOnUse" x="3" y="2" width="26" height="27">
<path d="M6.80761 25.0459C5.65711 23.8512 6.42019 21.3429 5.8346 19.8731C5.22755 18.3495 3 17.1232 3 15.5C3 13.8767 5.22756 12.6505 5.8346 11.1269C6.4202 9.65713 5.65711 7.14881 6.80761 5.95406C7.95811 4.75931 10.3735 5.55174 11.7889 4.94362C13.256 4.31322 14.4369 2 16 2C17.5632 2 18.744 4.31323 20.2112 4.94363C21.6265 5.55175 24.0419 4.75931 25.1924 5.95406C26.3429 7.14881 25.5798 9.65714 26.1654 11.1269C26.7725 12.6505 29 13.8768 29 15.5C29 17.1233 26.7724 18.3495 26.1654 19.8731C25.5798 21.3429 26.3429 23.8512 25.1924 25.0459C24.0419 26.2407 21.6265 25.4483 20.2111 26.0564C18.744 26.6868 17.5631 29 16 29C14.4368 29 13.256 26.6868 11.7888 26.0564C10.3735 25.4483 7.95811 26.2407 6.80761 25.0459Z" fill="white"/>
</mask>
<g mask="url(#mask0_1256_1434)">
<ellipse cx="19.9286" cy="20.4643" rx="13.9286" ry="14.4643" fill="#6FCF97"/>
</g>
<path d="M6.80761 25.1924C5.65711 24.0419 6.42019 21.6265 5.8346 20.2111C5.22755 18.744 3 17.5631 3 16C3 14.4368 5.22756 13.256 5.8346 11.7888C6.4202 10.3735 5.65711 7.95811 6.80761 6.80761C7.95811 5.65711 10.3735 6.42019 11.7889 5.8346C13.256 5.22755 14.4369 3 16 3C17.5632 3 18.744 5.22756 20.2112 5.8346C21.6265 6.4202 24.0419 5.65711 25.1924 6.80761C26.3429 7.95811 25.5798 10.3735 26.1654 11.7889C26.7725 13.256 29 14.4369 29 16C29 17.5632 26.7724 18.744 26.1654 20.2112C25.5798 21.6265 26.3429 24.0419 25.1924 25.1924C24.0419 26.3429 21.6265 25.5798 20.2111 26.1654C18.744 26.7725 17.5631 29 16 29C14.4368 29 13.256 26.7724 11.7888 26.1654C10.3735 25.5798 7.95811 26.3429 6.80761 25.1924Z" stroke="#09121F" stroke-width="1.6" stroke-linecap="round" stroke-linejoin="round"/>
<path d="M10.0147 15.7595V19.6H9V13H9.91983L10.7164 14.9629C10.7796 15.1273 10.8428 15.2885 10.906 15.4466C10.9693 15.6046 11.0356 15.7658 11.1052 15.9302L11.4371 16.8405C11.4497 16.8405 11.456 16.8405 11.456 16.8405C11.4624 16.8342 11.4718 16.831 11.4845 16.831V13H12.4897V19.6H11.5888L10.7922 17.6466C10.6658 17.3241 10.5394 17.008 10.4129 16.6983C10.2928 16.3885 10.1727 16.0756 10.0526 15.7595H10.0147Z" fill="#09121F"/>
<path d="M13.4457 19.6V13H16.3759V13.9672H14.4698V15.7595H16.1293V16.7362H14.4698V18.6328H16.3759V19.6H13.4457Z" fill="#09121F"/>
<path d="M21.2489 19.6H20.1868L19.6653 16.7362C19.6337 16.5529 19.6021 16.3695 19.5705 16.1862C19.5389 15.9966 19.5072 15.8101 19.4756 15.6267H19.4377L19.2386 16.7552C19.1501 17.2293 19.0616 17.7034 18.973 18.1776C18.8845 18.6517 18.796 19.1259 18.7075 19.6H17.6549L16.6972 13H17.8162C17.8667 13.4172 17.9141 13.8282 17.9584 14.2328C18.0026 14.6374 18.0469 15.0483 18.0912 15.4655C18.0975 15.5224 18.1101 15.6362 18.1291 15.8069C18.148 15.9713 18.167 16.1483 18.186 16.3379C18.2049 16.5213 18.2207 16.6983 18.2334 16.869C18.2524 17.0333 18.265 17.144 18.2713 17.2009H18.3093C18.3535 16.9543 18.3946 16.7109 18.4325 16.4707C18.4705 16.2241 18.5084 15.9776 18.5463 15.731L19.0299 13H19.9024L20.3765 15.7405C20.4144 15.9871 20.4524 16.2368 20.4903 16.4897C20.5345 16.7362 20.5788 16.9828 20.623 17.2293H20.661L20.8127 15.731L21.0782 13H22.2067L21.2489 19.6Z" fill="#09121F"/>
</svg>
