<svg width="35" height="35" viewBox="0 0 35 35" fill="none" xmlns="http://www.w3.org/2000/svg">
<path d="M17.5 34C26.6127 34 34 26.6127 34 17.5C34 8.3873 26.6127 1 17.5 1C8.3873 1 1 8.3873 1 17.5C1 26.6127 8.3873 34 17.5 34Z" stroke="#27AE60" stroke-width="2" stroke-linecap="round" stroke-linejoin="round"/>
<path d="M11.3125 16.125C12.4516 16.125 13.375 15.2016 13.375 14.0625C13.375 12.9234 12.4516 12 11.3125 12C10.1734 12 9.25 12.9234 9.25 14.0625C9.25 15.2016 10.1734 16.125 11.3125 16.125Z" fill="#333333"/>
<path d="M21.625 14.0625H25.75" stroke="#333333" stroke-width="2" stroke-linecap="round" stroke-linejoin="round"/>
<path d="M24.6466 21.6245C23.9222 22.8788 22.8804 23.9204 21.626 24.6446C20.3715 25.3687 18.9485 25.75 17.5001 25.75C16.0516 25.75 14.6286 25.3688 13.3742 24.6446C12.1197 23.9205 11.0779 22.8789 10.3535 21.6246" stroke="#333333" stroke-width="2" stroke-linecap="round" stroke-linejoin="round"/>
</svg>
