<svg width="25" height="25" viewBox="0 0 25 25" fill="none" xmlns="http://www.w3.org/2000/svg">
<mask id="path-1-outside-1_1256_1844" maskUnits="userSpaceOnUse" x="0" y="0" width="25" height="25" fill="black">
<rect fill="white" width="25" height="25"/>
<path fill-rule="evenodd" clip-rule="evenodd" d="M22.0793 6.29942C23.3408 6.85085 24.2223 8.10976 24.2223 9.57456V17.0772C24.2223 21.0234 21.0232 24.2225 17.077 24.2225H9.57439C8.10959 24.2225 6.85068 23.3409 6.29925 22.0794L16.3625 22.0789C19.4238 22.0789 21.9231 19.6724 22.0717 16.6479L22.0787 16.3626L22.0793 6.29942ZM15.6479 1C17.6211 1 19.2206 2.59954 19.2206 4.57266V15.6479C19.2206 17.6211 17.6211 19.2206 15.6479 19.2206H4.57266C2.59954 19.2206 1 17.6211 1 15.6479V4.57266C1 2.59954 2.59954 1 4.57266 1H15.6479Z"/>
</mask>
<path fill-rule="evenodd" clip-rule="evenodd" d="M22.0793 6.29942C23.3408 6.85085 24.2223 8.10976 24.2223 9.57456V17.0772C24.2223 21.0234 21.0232 24.2225 17.077 24.2225H9.57439C8.10959 24.2225 6.85068 23.3409 6.29925 22.0794L16.3625 22.0789C19.4238 22.0789 21.9231 19.6724 22.0717 16.6479L22.0787 16.3626L22.0793 6.29942ZM15.6479 1C17.6211 1 19.2206 2.59954 19.2206 4.57266V15.6479C19.2206 17.6211 17.6211 19.2206 15.6479 19.2206H4.57266C2.59954 19.2206 1 17.6211 1 15.6479V4.57266C1 2.59954 2.59954 1 4.57266 1H15.6479Z" fill="white"/>
<path d="M22.0793 6.29942L22.1937 6.03753L21.7935 5.86257L21.7935 6.2994L22.0793 6.29942ZM6.29925 22.0794L6.29923 21.7936L5.8624 21.7937L6.03736 22.1939L6.29925 22.0794ZM16.3625 22.0789V21.7931H16.3624L16.3625 22.0789ZM22.0717 16.6479L22.3573 16.662L22.3575 16.6549L22.0717 16.6479ZM22.0787 16.3626L22.3645 16.3696V16.3626L22.0787 16.3626ZM21.9648 6.5613C23.126 7.06888 23.9365 8.22739 23.9365 9.57456H24.5081C24.5081 7.99213 23.5556 6.63281 22.1937 6.03753L21.9648 6.5613ZM23.9365 9.57456V17.0772H24.5081V9.57456H23.9365ZM23.9365 17.0772C23.9365 20.8656 20.8654 23.9367 17.077 23.9367V24.5083C21.1811 24.5083 24.5081 21.1813 24.5081 17.0772H23.9365ZM17.077 23.9367H9.57439V24.5083H17.077V23.9367ZM9.57439 23.9367C8.22722 23.9367 7.06871 23.1261 6.56113 21.965L6.03736 22.1939C6.63264 23.5557 7.99196 24.5083 9.57439 24.5083V23.9367ZM6.29926 22.3653L16.3625 22.3647L16.3624 21.7931L6.29923 21.7936L6.29926 22.3653ZM16.3625 22.3647C19.5769 22.3647 22.2011 19.8379 22.3572 16.662L21.7863 16.6339C21.645 19.5069 19.2706 21.7931 16.3625 21.7931V22.3647ZM22.3575 16.6549L22.3644 16.3696L21.793 16.3556L21.786 16.6409L22.3575 16.6549ZM22.3645 16.3626L22.3651 6.29943L21.7935 6.2994L21.7929 16.3626L22.3645 16.3626ZM15.6479 1.28581C17.4632 1.28581 18.9348 2.75739 18.9348 4.57266H19.5064C19.5064 2.44169 17.7789 0.714187 15.6479 0.714187V1.28581ZM18.9348 4.57266V15.6479H19.5064V4.57266H18.9348ZM18.9348 15.6479C18.9348 17.4632 17.4632 18.9348 15.6479 18.9348V19.5064C17.7789 19.5064 19.5064 17.7789 19.5064 15.6479H18.9348ZM15.6479 18.9348H4.57266V19.5064H15.6479V18.9348ZM4.57266 18.9348C2.75739 18.9348 1.28581 17.4632 1.28581 15.6479H0.714187C0.714187 17.7789 2.44169 19.5064 4.57266 19.5064V18.9348ZM1.28581 15.6479V4.57266H0.714187V15.6479H1.28581ZM1.28581 4.57266C1.28581 2.75739 2.75739 1.28581 4.57266 1.28581V0.714187C2.44169 0.714187 0.714187 2.44169 0.714187 4.57266H1.28581ZM4.57266 1.28581H15.6479V0.714187H4.57266V1.28581Z" fill="black" fill-opacity="0.2" mask="url(#path-1-outside-1_1256_1844)"/>
</svg>
