<svg width="36" height="36" viewBox="0 0 36 36" fill="none" xmlns="http://www.w3.org/2000/svg">
<path d="M5.97918 30.0208C4.47468 28.5163 5.47256 25.3577 4.70678 23.5069C3.91294 21.5883 1 20.0441 1 17.9999C1 15.9558 3.91296 14.4117 4.70679 12.4931C5.47257 10.6423 4.47469 7.48368 5.97918 5.97918C7.48368 4.47468 10.6423 5.47256 12.4931 4.70678C14.4117 3.91294 15.9559 1 18.0001 1C20.0442 1 21.5883 3.91296 23.5069 4.70679C25.3577 5.47257 28.5163 4.47469 30.0208 5.97918C31.5253 7.48368 30.5274 10.6423 31.2932 12.4931C32.0871 14.4117 35 15.9559 35 18.0001C35 20.0442 32.087 21.5883 31.2932 23.5069C30.5274 25.3577 31.5253 28.5163 30.0208 30.0208C28.5163 31.5253 25.3577 30.5274 23.5069 31.2932C21.5883 32.0871 20.0441 35 17.9999 35C15.9558 35 14.4117 32.087 12.4931 31.2932C10.6423 30.5274 7.48368 31.5253 5.97918 30.0208Z" stroke="#27AE60" stroke-width="2" stroke-linecap="round" stroke-linejoin="round"/>
<path d="M25.1922 14.0767L15.6024 23.2305L10.8076 18.6536" stroke="#333333" stroke-width="2" stroke-linecap="round" stroke-linejoin="round"/>
</svg>
