<svg width="44" height="44" viewBox="0 0 44 44" fill="none" xmlns="http://www.w3.org/2000/svg">
<path d="M7.40982 34.7341C7.45269 34.9148 7.53168 35.085 7.64203 35.2345C7.75239 35.3839 7.89184 35.5094 8.05198 35.6036C8.21212 35.6977 8.38965 35.7584 8.57389 35.7822C8.75813 35.8059 8.94526 35.7921 9.12403 35.7417C17.3206 33.4785 25.9771 33.4777 34.1741 35.7393C34.3528 35.7897 34.5399 35.8035 34.7241 35.7797C34.9082 35.756 35.0857 35.6953 35.2458 35.6012C35.4059 35.5071 35.5453 35.3816 35.6556 35.2323C35.766 35.083 35.845 34.9128 35.8879 34.7322L40.2688 16.1152C40.3275 15.866 40.3154 15.6053 40.2339 15.3626C40.1524 15.1199 40.0047 14.9048 39.8076 14.7414C39.6104 14.5781 39.3715 14.473 39.1179 14.4381C38.8643 14.4032 38.6059 14.4398 38.3719 14.5438L29.6778 18.4078C29.3639 18.5473 29.0091 18.5643 28.6833 18.4553C28.3575 18.3464 28.0843 18.1194 27.9174 17.8191L22.8553 8.70724C22.7362 8.49289 22.562 8.31428 22.3506 8.18993C22.1393 8.06557 21.8986 8 21.6533 8C21.4081 8 21.1674 8.06557 20.956 8.18993C20.7447 8.31428 20.5705 8.49289 20.4514 8.70724L15.3892 17.8191C15.2224 18.1194 14.9492 18.3464 14.6234 18.4553C14.2976 18.5643 13.9428 18.5473 13.6288 18.4078L4.93344 14.5432C4.69952 14.4392 4.44121 14.4026 4.18762 14.4375C3.93402 14.4724 3.69519 14.5774 3.49803 14.7406C3.30087 14.9039 3.1532 15.119 3.07164 15.3616C2.99009 15.6043 2.97789 15.8649 3.03643 16.1141L7.40982 34.7341Z" stroke="#27AE60" stroke-width="2" stroke-linecap="round" stroke-linejoin="round"/>
<path d="M16.1533 28.8325C19.8099 28.4478 23.4968 28.4478 27.1533 28.8325" stroke="#333333" stroke-width="2" stroke-linecap="round" stroke-linejoin="round"/>
</svg>
