<svg width="32" height="32" viewBox="0 0 32 32" fill="none" xmlns="http://www.w3.org/2000/svg">
<mask id="mask0_1256_1010" style="mask-type:alpha" maskUnits="userSpaceOnUse" x="3" y="2" width="26" height="27">
<path d="M6.80761 25.0459C5.65711 23.8512 6.42019 21.3429 5.8346 19.8731C5.22755 18.3495 3 17.1232 3 15.5C3 13.8767 5.22756 12.6505 5.8346 11.1269C6.4202 9.65713 5.65711 7.14881 6.80761 5.95406C7.95811 4.75931 10.3735 5.55174 11.7889 4.94362C13.256 4.31322 14.4369 2 16 2C17.5632 2 18.744 4.31323 20.2112 4.94363C21.6265 5.55175 24.0419 4.75931 25.1924 5.95406C26.3429 7.14881 25.5798 9.65714 26.1654 11.1269C26.7725 12.6505 29 13.8768 29 15.5C29 17.1233 26.7724 18.3495 26.1654 19.8731C25.5798 21.3429 26.3429 23.8512 25.1924 25.0459C24.0419 26.2407 21.6265 25.4483 20.2111 26.0564C18.744 26.6868 17.5631 29 16 29C14.4368 29 13.256 26.6868 11.7888 26.0564C10.3735 25.4483 7.95811 26.2407 6.80761 25.0459Z" fill="white"/>
</mask>
<g mask="url(#mask0_1256_1010)">
<ellipse cx="20.9286" cy="20.4643" rx="13.9286" ry="14.4643" fill="#6FCF97"/>
</g>
<path d="M6.80761 25.1924C5.65711 24.0419 6.42019 21.6265 5.8346 20.2111C5.22755 18.744 3 17.5631 3 16C3 14.4368 5.22756 13.256 5.8346 11.7888C6.4202 10.3735 5.65711 7.95811 6.80761 6.80761C7.95811 5.65711 10.3735 6.42019 11.7889 5.8346C13.256 5.22755 14.4369 3 16 3C17.5632 3 18.744 5.22756 20.2112 5.8346C21.6265 6.4202 24.0419 5.65711 25.1924 6.80761C26.3429 7.95811 25.5798 10.3735 26.1654 11.7889C26.7725 13.256 29 14.4369 29 16C29 17.5632 26.7724 18.744 26.1654 20.2112C25.5798 21.6265 26.3429 24.0419 25.1924 25.1924C24.0419 26.3429 21.6265 25.5798 20.2111 26.1654C18.744 26.7725 17.5631 29 16 29C14.4368 29 13.256 26.7724 11.7888 26.1654C10.3735 25.5798 7.95811 26.3429 6.80761 25.1924Z" stroke="#09121F" stroke-width="1.6" stroke-linecap="round" stroke-linejoin="round"/>
<path d="M19.6 12.3999L12.4 19.5999" stroke="#09121F" stroke-width="1.4" stroke-linecap="round" stroke-linejoin="round"/>
<path d="M13.4 14.8C14.1732 14.8 14.8 14.1732 14.8 13.4C14.8 12.6268 14.1732 12 13.4 12C12.6268 12 12 12.6268 12 13.4C12 14.1732 12.6268 14.8 13.4 14.8Z" stroke="#09121F" stroke-width="1.4" stroke-miterlimit="10"/>
<path d="M18.6 20C19.3731 20 20 19.3731 20 18.6C20 17.8268 19.3731 17.2 18.6 17.2C17.8268 17.2 17.2 17.8268 17.2 18.6C17.2 19.3731 17.8268 20 18.6 20Z" stroke="#09121F" stroke-width="1.4" stroke-miterlimit="10"/>
</svg>
