<svg width="44" height="44" viewBox="0 0 44 44" fill="none" xmlns="http://www.w3.org/2000/svg">
<path d="M7.75134 23.625V8.5C7.75134 8.13533 7.89621 7.78559 8.15407 7.52773C8.41193 7.26987 8.76167 7.125 9.12634 7.125H25.6277L35.2527 16.75V23.625" stroke="#27AE60" stroke-width="2" stroke-linecap="round" stroke-linejoin="round"/>
<path d="M25.6277 7.125V16.75H35.2541" stroke="#27AE60" stroke-width="2" stroke-linecap="round" stroke-linejoin="round"/>
<path d="M7.75269 34.625H10.5027C11.232 34.625 11.9315 34.3353 12.4472 33.8195C12.963 33.3038 13.2527 32.6043 13.2527 31.875C13.2527 31.1457 12.963 30.4462 12.4472 29.9305C11.9315 29.4147 11.232 29.125 10.5027 29.125H7.75269V37.375" stroke="#333333" stroke-width="2" stroke-linecap="round" stroke-linejoin="round"/>
<path d="M20.8152 37.375C21.9092 37.375 22.9584 36.9404 23.732 36.1668C24.5056 35.3932 24.9402 34.344 24.9402 33.25C24.9402 32.156 24.5056 31.1068 23.732 30.3332C22.9584 29.5596 21.9092 29.125 20.8152 29.125H18.7527V37.375H20.8152Z" stroke="#333333" stroke-width="2" stroke-linecap="round" stroke-linejoin="round"/>
<path d="M35.2527 29.125H30.4402V37.375" stroke="#333333" stroke-width="2" stroke-linecap="round" stroke-linejoin="round"/>
<path d="M34.5652 33.9375H30.4402" stroke="#333333" stroke-width="2" stroke-linecap="round" stroke-linejoin="round"/>
</svg>
