<svg width="145" height="36" viewBox="0 0 145 36" fill="none" xmlns="http://www.w3.org/2000/svg">
<path d="M0 24.1083H4.83185V18.0317L10.5967 24.1083H16.7282L8.56031 15.2179L16.4949 6.93526H10.2968L4.83185 12.7477V0H0V24.1083Z" fill="#797979"/>
<rect y="28.7825" width="17.2202" height="3.93605" fill="#797979"/>
<path d="M30.76 14V7.4H33.24C33.9333 7.4 34.5033 7.59667 34.95 7.99C35.3967 8.38333 35.62 8.89667 35.62 9.53C35.62 10.1567 35.3967 10.67 34.95 11.07C34.5033 11.47 33.9333 11.67 33.24 11.67H32.11V14H30.76ZM32.11 10.49H33.24C33.5533 10.49 33.7967 10.4033 33.97 10.23C34.15 10.05 34.24 9.81667 34.24 9.53C34.24 9.25 34.1467 9.02333 33.96 8.85C33.78 8.67667 33.54 8.59 33.24 8.59H32.11V10.49ZM40.1567 14L39.7867 13.14H37.0867L36.7167 14H35.2667L38.2167 7.28H38.6667L41.6067 14H40.1567ZM39.3167 12.03L38.4367 9.8L37.5567 12.03H39.3167ZM47.1504 12.05C47.1504 12.67 46.9204 13.17 46.4604 13.55C46.0071 13.93 45.4004 14.12 44.6404 14.12C44.0604 14.12 43.5404 13.9867 43.0804 13.72C42.6271 13.4467 42.2804 13.07 42.0404 12.59L42.9804 11.91C43.4137 12.55 43.9637 12.87 44.6304 12.87C44.9771 12.87 45.2604 12.79 45.4804 12.63C45.7071 12.47 45.8204 12.2533 45.8204 11.98C45.8204 11.7333 45.7271 11.54 45.5404 11.4C45.3604 11.2533 45.0971 11.18 44.7504 11.18H43.8804V10.07H44.6504C44.9237 10.07 45.1371 10 45.2904 9.86C45.4504 9.72 45.5304 9.53667 45.5304 9.31C45.5304 9.07 45.4471 8.88 45.2804 8.74C45.1204 8.6 44.8937 8.53 44.6004 8.53C44.0204 8.53 43.5637 8.81667 43.2304 9.39L42.2904 8.72C42.5171 8.26 42.8337 7.90667 43.2404 7.66C43.6537 7.40667 44.1304 7.28 44.6704 7.28C45.3437 7.28 45.8771 7.45333 46.2704 7.8C46.6637 8.14 46.8604 8.60667 46.8604 9.2C46.8604 9.73333 46.6404 10.1767 46.2004 10.53C46.8337 10.8367 47.1504 11.3433 47.1504 12.05ZM48.2893 14V7.4H50.7693C51.4626 7.4 52.0326 7.59667 52.4793 7.99C52.926 8.38333 53.1493 8.89667 53.1493 9.53C53.1493 10.1567 52.926 10.67 52.4793 11.07C52.0326 11.47 51.4626 11.67 50.7693 11.67H49.6393V14H48.2893ZM49.6393 10.49H50.7693C51.0826 10.49 51.326 10.4033 51.4993 10.23C51.6793 10.05 51.7693 9.81667 51.7693 9.53C51.7693 9.25 51.676 9.02333 51.4893 8.85C51.3093 8.67667 51.0693 8.59 50.7693 8.59H49.6393V10.49ZM57.686 14L57.316 13.14H54.616L54.246 14H52.796L55.746 7.28H56.196L59.136 14H57.686ZM56.846 12.03L55.966 9.8L55.086 12.03H56.846ZM60.0373 14V7.4H64.4373V8.62H61.3873V9.99H62.7773C63.4373 9.99 63.9707 10.1733 64.3773 10.54C64.7907 10.9 64.9973 11.3767 64.9973 11.97C64.9973 12.57 64.7907 13.06 64.3773 13.44C63.964 13.8133 63.4307 14 62.7773 14H60.0373ZM61.3873 12.84H62.7073C63.0073 12.84 63.2407 12.7633 63.4073 12.61C63.574 12.45 63.6573 12.2367 63.6573 11.97C63.6573 11.7033 63.574 11.4933 63.4073 11.34C63.2407 11.18 63.0073 11.1 62.7073 11.1H61.3873V12.84ZM65.7218 10.7C65.7085 9.76 66.0485 8.95 66.7418 8.27C67.4418 7.59 68.2685 7.26 69.2218 7.28C70.1751 7.26 71.0018 7.59 71.7018 8.27C72.4085 8.95 72.7551 9.76 72.7418 10.7C72.7551 11.64 72.4085 12.45 71.7018 13.13C71.0018 13.81 70.1751 14.14 69.2218 14.12C68.2685 14.14 67.4418 13.81 66.7418 13.13C66.0485 12.45 65.7085 11.64 65.7218 10.7ZM71.3518 10.7C71.3518 10.0733 71.1485 9.55667 70.7418 9.15C70.3418 8.73667 69.8385 8.53 69.2318 8.53C68.6185 8.53 68.1118 8.73333 67.7118 9.14C67.3118 9.54667 67.1118 10.0667 67.1118 10.7C67.1118 11.3333 67.3118 11.8533 67.7118 12.26C68.1118 12.6667 68.6185 12.87 69.2318 12.87C69.8385 12.87 70.3418 12.6667 70.7418 12.26C71.1485 11.8533 71.3518 11.3333 71.3518 10.7ZM75.248 14V8.62H73.138V7.4H78.718V8.62H76.598V14H75.248ZM85.4177 14H83.7877L80.9577 10.56V14H79.6077V7.4H80.9577V10.46L83.4777 7.4H85.0877L82.5577 10.51L85.4177 14ZM90.5669 14L90.1969 13.14H87.4969L87.1269 14H85.6769L88.6269 7.28H89.0769L92.0169 14H90.5669ZM89.7269 12.03L88.8469 9.8L87.9669 12.03H89.7269ZM100.433 7.28H100.883V14H99.5329V9.91L95.6629 14.12H95.2229V7.4H96.5729V11.45L100.433 7.28ZM30.76 29V22.4H36.28V29H34.93V23.62H32.11V29H30.76ZM37.7913 29V22.4H40.2713C40.9646 22.4 41.5346 22.5967 41.9813 22.99C42.4279 23.3833 42.6513 23.8967 42.6513 24.53C42.6513 25.1567 42.4279 25.67 41.9813 26.07C41.5346 26.47 40.9646 26.67 40.2713 26.67H39.1413V29H37.7913ZM39.1413 25.49H40.2713C40.5846 25.49 40.8279 25.4033 41.0013 25.23C41.1813 25.05 41.2713 24.8167 41.2713 24.53C41.2713 24.25 41.1779 24.0233 40.9913 23.85C40.8113 23.6767 40.5713 23.59 40.2713 23.59H39.1413V25.49ZM43.3488 25.7C43.3354 24.76 43.6754 23.95 44.3688 23.27C45.0688 22.59 45.8954 22.26 46.8488 22.28C47.8021 22.26 48.6288 22.59 49.3288 23.27C50.0354 23.95 50.3821 24.76 50.3688 25.7C50.3821 26.64 50.0354 27.45 49.3288 28.13C48.6288 28.81 47.8021 29.14 46.8488 29.12C45.8954 29.14 45.0688 28.81 44.3688 28.13C43.6754 27.45 43.3354 26.64 43.3488 25.7ZM48.9788 25.7C48.9788 25.0733 48.7754 24.5567 48.3688 24.15C47.9688 23.7367 47.4654 23.53 46.8588 23.53C46.2454 23.53 45.7388 23.7333 45.3388 24.14C44.9388 24.5467 44.7388 25.0667 44.7388 25.7C44.7388 26.3333 44.9388 26.8533 45.3388 27.26C45.7388 27.6667 46.2454 27.87 46.8588 27.87C47.4654 27.87 47.9688 27.6667 48.3688 27.26C48.7754 26.8533 48.9788 26.3333 48.9788 25.7ZM56.6759 27.78H57.5559V30.41H56.2059V29H52.0959V30.41H50.7459V27.78H51.2759C51.8159 27.3333 52.0859 25.9033 52.0859 23.49V22.4H56.6759V27.78ZM52.7459 27.78H55.3259V23.62H53.3559C53.3226 25.6667 53.1193 27.0533 52.7459 27.78ZM63.663 27.06C63.663 27.6267 63.4596 28.0933 63.053 28.46C62.6463 28.82 62.1263 29 61.493 29H58.553V22.4H60.893C61.5063 22.4 62.0063 22.5733 62.393 22.92C62.7863 23.26 62.983 23.7 62.983 24.24C62.983 24.7267 62.8196 25.1233 62.493 25.43C63.273 25.7167 63.663 26.26 63.663 27.06ZM60.783 23.56H59.853V25.07H60.783C61.0563 25.07 61.2663 25.0033 61.413 24.87C61.5663 24.7367 61.643 24.55 61.643 24.31C61.643 24.0767 61.5663 23.8933 61.413 23.76C61.2663 23.6267 61.0563 23.56 60.783 23.56ZM62.333 27.01C62.333 26.7567 62.2496 26.5567 62.083 26.41C61.9163 26.2567 61.6863 26.18 61.393 26.18H59.853V27.84H61.393C61.6863 27.84 61.9163 27.7667 62.083 27.62C62.2496 27.4733 62.333 27.27 62.333 27.01ZM69.9739 22.28H70.4239V29H69.0739V24.91L65.2039 29.12H64.7639V22.4H66.1139V26.45L69.9739 22.28ZM80.9419 29H79.3119L76.8019 25.56V29H75.4519V25.55L72.9319 29H71.3019L73.9819 25.52L71.5119 22.4H73.1219L75.4519 25.47V22.4H76.8019V25.46L79.1219 22.4H80.7319L78.2719 25.52L80.9419 29ZM81.844 29V22.4H86.284V23.62H83.194V24.96H85.464V26.11H83.194V27.78H86.404V29H81.844ZM87.5764 29V22.4H88.9264V24.93H91.8464V22.4H93.1964V29H91.8464V26.15H88.9264V29H87.5764ZM99.9153 22.28H100.365V29H99.0153V24.91L95.1453 29.12H94.7053V22.4H96.0553V26.45L99.9153 22.28ZM101.873 29V22.4H106.313V23.62H103.223V24.96H105.493V26.11H103.223V27.78H106.433V29H101.873ZM110.028 25.7C110.015 24.7533 110.358 23.9433 111.058 23.27C111.758 22.59 112.588 22.26 113.548 22.28C114.175 22.28 114.742 22.4267 115.248 22.72C115.762 23.0067 116.165 23.4067 116.458 23.92L115.438 24.64C114.965 23.9 114.335 23.53 113.548 23.53C112.935 23.53 112.425 23.7367 112.018 24.15C111.618 24.5633 111.418 25.0833 111.418 25.71C111.418 26.3367 111.618 26.8533 112.018 27.26C112.425 27.6667 112.935 27.87 113.548 27.87C114.335 27.87 114.965 27.5 115.438 26.76L116.458 27.48C116.172 27.9933 115.772 28.3967 115.258 28.69C114.745 28.9767 114.172 29.12 113.538 29.12C112.572 29.14 111.738 28.8133 111.038 28.14C110.345 27.46 110.008 26.6467 110.028 25.7ZM121.866 29L121.496 28.14H118.796L118.426 29H116.976L119.926 22.28H120.376L123.316 29H121.866ZM121.026 27.03L120.146 24.8L119.266 27.03H121.026ZM129.427 22.28H129.877V29H128.527V24.91L124.657 29.12H124.217V22.4H125.567V26.45L129.427 22.28ZM125.507 20.05V19.9H126.587V20.09C126.587 20.33 126.644 20.5167 126.757 20.65C126.87 20.7833 127.03 20.85 127.237 20.85C127.444 20.85 127.604 20.7833 127.717 20.65C127.83 20.5167 127.887 20.33 127.887 20.09V19.9H128.957V20.05C128.957 20.5633 128.797 20.9867 128.477 21.32C128.157 21.6467 127.744 21.81 127.237 21.81C126.724 21.81 126.307 21.6467 125.987 21.32C125.667 20.9867 125.507 20.5633 125.507 20.05ZM132.875 29V23.62H130.765V22.4H136.345V23.62H134.225V29H132.875ZM140.743 29L140.373 28.14H137.673L137.303 29H135.853L138.803 22.28H139.253L142.193 29H140.743ZM139.903 27.03L139.023 24.8L138.143 27.03H139.903Z" fill="#797979"/>
</svg>
