<svg width="202" height="60" viewBox="0 0 202 60" fill="none" xmlns="http://www.w3.org/2000/svg">
<path d="M69.8279 49.9278C69.8279 49.8195 69.7196 49.4946 69.503 49.278C69.1781 48.9531 68.7449 48.4116 68.0951 47.87C67.5535 47.4368 66.9037 47.1119 66.1456 46.787C65.1709 46.3538 64.1961 46.0289 62.8965 45.704C62.8965 45.5957 62.8965 45.5957 62.8965 45.4874C63.0048 44.4043 63.0048 43.4296 62.7882 42.4549C62.5716 41.4801 62.0301 40.6137 61.3803 39.9639C61.2719 39.8556 61.2719 39.8556 61.1636 39.8556C60.5138 39.4224 59.9723 39.0975 59.4308 38.8809C59.3225 38.8809 59.2142 38.7726 59.1059 38.7726H58.9976C58.6727 38.6643 58.3478 38.556 58.0229 38.4477C57.5896 38.3394 57.1564 38.1227 56.7232 38.0144C54.9904 37.3646 53.1492 36.8231 51.3081 36.3899C50.3333 36.1733 49.3586 35.9567 48.3839 35.8484L45.0265 30C45.3514 29.7834 45.568 29.5668 45.7846 29.2419C46.1095 28.7004 46.1095 27.9422 45.7846 27.4007L42.1023 21.1191C42.3189 21.0108 42.5355 20.7942 42.6438 20.4693C42.9687 19.9278 42.9687 19.1697 42.6438 18.6282L38.5283 11.5884C38.9615 11.5884 39.2864 11.3718 39.6113 11.1552C40.2611 10.5054 40.3694 9.53068 39.9362 8.77256L38.2034 6.17328L40.0445 3.79061C40.586 3.03249 40.586 2.05776 39.9362 1.29964C39.6113 0.866425 39.0698 0.649818 38.5283 0.649818C38.2034 0.649818 37.7701 0.758122 37.5535 0.974729L35.1709 2.27437L32.7882 0.433213C32.4633 0.216606 32.0301 0 31.5969 0C31.1636 0 30.7304 0.216606 30.2972 0.541516C29.6474 1.19134 29.4308 2.16606 29.9723 2.92419L31.5969 5.52346L29.7557 7.90614C29.2142 8.66426 29.2142 9.63899 29.864 10.2888C30.1889 10.722 30.7304 10.9386 31.272 10.9386C31.3803 10.9386 31.4886 10.9386 31.5969 10.9386L27.373 18.3032C27.0481 18.8448 27.0481 19.6029 27.373 20.1444C27.4813 20.361 27.6979 20.5776 27.9145 20.7942L24.2322 27.0758C23.9073 27.6173 23.9073 28.3755 24.2322 28.917C24.4488 29.2419 21.633 35.4152 21.633 35.4152C20.7665 35.5235 19.9001 35.7401 19.142 35.8484C18.4922 36.065 17.734 36.1733 16.8676 36.3899C14.8099 36.9314 12.7521 37.6895 10.9109 38.4477C10.2611 38.6643 9.503 38.9892 8.74487 39.5307C8.74487 39.5307 8.74487 39.5307 8.63657 39.639C8.09505 40.0722 7.77014 40.722 7.44523 41.3718C7.12032 42.0217 7.01202 42.7798 7.01202 43.6462C7.01202 44.296 7.01202 44.8375 7.12033 45.4874C6.68711 45.5957 6.1456 45.704 5.71238 45.9206C4.52105 46.2455 3.54632 46.6787 2.57159 47.2202C1.81347 47.6534 1.16365 48.195 0.62213 48.8448L0.513827 48.9531C0.513827 48.9531 0.405524 49.0614 0.405524 49.1697C-0.0276893 49.7112 -0.135993 50.4693 0.188917 51.1191C0.513827 51.769 1.16365 52.2022 1.92177 52.2022H2.13838C2.13838 52.2022 2.13838 52.2022 2.24668 52.2022C2.35498 52.2022 2.57159 52.2022 2.67989 52.2022C3.1131 52.2022 3.65462 52.2022 4.08783 52.3105C4.84596 52.4188 5.38747 52.5271 5.82069 52.7437C5.49578 54.0433 5.06256 55.2347 4.52105 56.426C4.41274 56.6426 4.30444 56.8592 4.30444 57.0758L4.19614 57.1841C3.87123 58.0505 4.19614 59.1336 5.06256 59.5668C5.17087 59.5668 5.27917 59.6751 5.27917 59.6751C5.38747 59.6751 5.38747 59.7834 5.49578 59.7834C5.82069 59.8917 6.03729 60 6.3622 60C6.90372 60 7.55354 59.7834 7.87845 59.2419C7.98675 59.1336 8.09505 59.0253 8.31166 58.917C8.74487 58.7004 9.17809 58.4838 9.93621 58.1588C11.4525 57.6173 12.9687 57.0758 14.5932 56.6426L14.8099 56.5343C16.2178 56.1011 18.1673 55.5596 20.1167 54.9097C20.8748 54.6931 21.633 54.3682 22.3911 53.935C22.9326 53.6101 23.4741 53.2852 23.799 52.7437C24.3405 52.0939 24.5571 51.444 24.5571 50.7942C24.8821 50.6859 25.3153 50.6859 25.6402 50.6859C25.7485 51.2274 26.0734 51.6606 26.5066 51.9856V53.0686C26.5066 53.7184 26.8315 54.1516 27.0481 54.4765C27.1564 54.5848 27.1564 54.5848 27.2647 54.6931C27.5896 55.018 28.0229 55.1264 28.3478 55.1264C28.4561 55.1264 28.4561 55.1264 28.5644 55.1264C28.6727 55.1264 28.6727 55.1264 28.781 55.1264L41.0192 55.2347H41.1275C41.1275 55.2347 41.1275 55.2347 41.2358 55.2347C41.8857 55.2347 42.5355 55.018 43.077 54.6931C43.9434 54.1516 44.3766 53.0686 44.3766 52.0939C44.3766 51.769 44.2683 51.444 44.16 51.2274C44.16 51.1191 44.16 51.1191 44.2683 51.0108C44.2683 50.9025 44.2683 50.9025 44.2683 50.7942C44.7016 50.7942 45.0265 50.9025 45.4597 50.9025C45.4597 51.5523 45.7846 52.2022 46.2178 52.852C46.5427 53.2852 46.9759 53.7184 47.5174 53.935H47.6257C47.9506 54.0433 48.2756 54.2599 48.6005 54.3682L48.8171 54.4765C49.5752 54.8014 50.4416 55.0181 51.3081 55.343C52.3911 55.6679 53.5824 55.9928 54.6655 56.3177C55.5319 56.6426 56.5066 56.8592 57.373 57.1841C58.4561 57.509 59.7557 57.9422 61.0553 58.4837C61.5969 58.7004 61.9218 58.917 62.1384 59.1336C62.4633 59.5668 63.0048 59.7834 63.5463 59.7834C63.8712 59.7834 64.1961 59.6751 64.4127 59.5668L64.7377 59.3502L64.846 59.2419C65.7124 58.8087 66.0373 57.8339 65.7124 56.8592C65.6041 56.7509 65.6041 56.5343 65.4958 56.426C64.9543 55.0181 64.521 53.935 64.1961 52.852C64.1961 52.6354 64.0878 52.5271 64.0878 52.3105C64.3044 52.2022 64.521 52.0939 64.7377 52.0939C65.4958 51.8773 66.3622 51.769 67.2286 51.769C67.3369 51.769 67.4452 51.769 67.4452 51.769C67.5535 51.769 67.5535 51.769 67.6618 51.769H67.7701H67.8784C68.5283 51.769 69.0698 51.444 69.503 50.9025C69.9362 51.0108 70.0445 50.4693 69.8279 49.9278ZM67.7701 50.4693C67.7701 50.4693 67.8784 50.4693 67.9868 50.4693C67.9868 50.4693 67.8784 50.4693 67.7701 50.4693Z" fill="white"/>
<path fill-rule="evenodd" clip-rule="evenodd" d="M41.1279 53.6098C40.6946 53.6098 40.2614 53.3932 39.9365 52.9599C39.9365 52.8516 39.9365 52.8516 39.9365 52.7433C40.0448 52.7433 40.1531 52.635 40.2614 52.5267C40.3697 52.4184 40.478 52.5267 40.478 52.635C40.478 52.7433 40.5863 52.7433 40.5863 52.8516C40.6946 52.9599 40.8029 52.9599 40.9113 53.0682C41.0196 53.0682 41.2362 53.0682 41.3445 52.8516C41.4528 52.7433 41.3445 52.5267 41.2362 52.4184C41.1279 52.3101 41.1279 52.3101 41.0196 52.2018C40.9113 52.0935 40.6946 52.0935 40.5863 51.9852C40.1531 51.7686 39.9365 51.4437 40.0448 50.9022C40.1531 50.469 40.3697 50.1441 40.8029 50.0358C41.3445 49.9275 41.7777 49.9274 42.1026 50.3607C42.2109 50.469 42.2109 50.5773 42.3192 50.5773C42.3192 50.6856 42.3192 50.6856 42.3192 50.7939C42.2109 50.7939 42.1026 50.9022 42.1026 51.0105C41.9943 51.1188 41.9943 51.1188 41.886 50.9022C41.6694 50.9022 41.5611 50.6856 41.4528 50.6856C41.3445 50.6856 41.2362 50.6856 41.2362 50.6856C41.0196 50.7939 40.9113 51.0105 41.1279 51.2271C41.2362 51.3354 41.3445 51.3354 41.3445 51.4437C41.5611 51.552 41.6694 51.6603 41.886 51.7686C42.6441 52.2018 42.5358 53.1765 41.9943 53.5015C41.6694 53.6098 41.4528 53.6098 41.1279 53.6098Z" fill="#008653"/>
<path fill-rule="evenodd" clip-rule="evenodd" d="M34.3051 51.8765C34.3051 51.335 34.3051 50.9018 34.3051 50.4686C34.3051 50.252 34.3051 50.252 34.5217 50.252C35.0632 50.252 35.713 50.252 36.2545 50.252C36.4711 50.252 36.4711 50.252 36.4711 50.4686C36.4711 50.9018 36.4711 50.7935 36.1462 50.7935C35.9296 50.7935 35.713 50.7935 35.4964 50.7935C35.3881 50.7935 35.3881 50.7935 35.3881 50.9018C35.3881 51.1184 35.3881 51.2267 35.3881 51.4433C35.3881 51.5516 35.3881 51.5516 35.4964 51.5516C35.713 51.5516 35.9296 51.5516 36.1462 51.5516C36.3628 51.5516 36.3628 51.5516 36.3628 51.7682C36.3628 52.0931 36.3628 52.0931 36.0379 52.0931C35.8213 52.0931 35.6047 52.0931 35.3881 52.0931C35.2798 52.0931 35.2798 52.0931 35.2798 52.2014C35.2798 52.418 35.2798 52.6346 35.2798 52.8512C35.2798 52.9595 35.2798 52.9595 35.3881 52.9595C35.713 52.9595 35.9296 52.9595 36.2545 52.9595C36.4711 52.9595 36.4711 52.9595 36.4711 53.1761C36.4711 53.6094 36.4711 53.5011 36.1462 53.5011C35.6047 53.5011 35.0632 53.5011 34.5217 53.5011C34.1968 53.5011 34.1968 53.5011 34.1968 53.1761C34.3051 52.8512 34.3051 52.3097 34.3051 51.8765Z" fill="#008653"/>
<path fill-rule="evenodd" clip-rule="evenodd" d="M37.2295 51.8774C37.2295 51.3359 37.2295 50.9027 37.2295 50.3611C37.2295 50.1445 37.2295 50.1445 37.4461 50.1445C37.9876 50.1445 38.6374 50.1445 39.1789 50.1445C39.3956 50.1445 39.3956 50.1445 39.3956 50.3611C39.3956 50.7943 39.3956 50.686 39.0706 50.686C38.854 50.686 38.6374 50.686 38.4208 50.686C38.3125 50.686 38.3125 50.686 38.3125 50.7943C38.3125 51.011 38.3125 51.1193 38.3125 51.3359C38.3125 51.4442 38.3125 51.4442 38.4208 51.4442C38.6374 51.4442 38.854 51.4442 39.1789 51.4442C39.3956 51.4442 39.3956 51.4442 39.3956 51.6608C39.3956 52.094 39.3956 52.094 39.0706 52.094C38.854 52.094 38.7457 52.094 38.5291 52.094C38.4208 52.094 38.4208 52.094 38.4208 52.2023C38.4208 52.4189 38.4208 52.5272 38.4208 52.7438C38.4208 52.9604 38.4208 52.9604 38.6374 52.9604C38.854 52.9604 39.179 52.9604 39.3956 52.9604C39.6122 52.9604 39.6122 52.9604 39.6122 53.177C39.6122 53.5019 39.6122 53.5019 39.2873 53.5019C38.7457 53.5019 38.2042 53.5019 37.6627 53.5019C37.4461 53.5019 37.4461 53.5019 37.4461 53.2853C37.2295 52.8521 37.2295 52.4189 37.2295 51.8774Z" fill="#008653"/>
<path fill-rule="evenodd" clip-rule="evenodd" d="M29.5397 51.3349V51.2266C29.5397 51.1183 29.5397 50.9017 29.5397 50.7934V50.1436C28.9982 50.1436 28.4567 50.1436 28.0235 50.1436C27.5903 50.1436 27.6986 50.0353 27.6986 50.5768C27.6986 50.6851 27.6986 50.7934 27.9152 50.7934C28.1318 50.7934 28.2401 50.7934 28.4567 50.7934C28.6733 50.7934 28.6733 50.7934 28.6733 51.01C28.6733 51.4432 28.6733 51.8765 28.6733 52.2014V52.3097C28.6733 52.6346 28.6733 53.0678 28.6733 53.3927C28.6733 53.501 28.6733 53.6093 28.7816 53.6093C28.9982 53.6093 29.3231 53.6093 29.5397 53.6093C29.648 53.6093 29.648 53.6093 29.648 53.501C29.648 53.3927 29.648 53.3927 29.648 53.2844C29.5397 52.6346 29.5397 51.9848 29.5397 51.3349Z" fill="#008653"/>
<path fill-rule="evenodd" clip-rule="evenodd" d="M28.4569 51.3349V51.2266C28.4569 51.1183 28.4569 50.9017 28.4569 50.7934V50.1436C28.9985 50.1436 29.54 50.1436 29.9732 50.1436C30.4064 50.1436 30.2981 50.0353 30.2981 50.5768C30.2981 50.6851 30.2981 50.7934 30.0815 50.7934C29.8649 50.7934 29.7566 50.7934 29.54 50.7934C29.3234 50.7934 29.3234 50.7934 29.3234 51.01C29.3234 51.4432 29.3234 51.8765 29.3234 52.2014V52.3097C29.3234 52.6346 29.3234 53.0678 29.3234 53.3927C29.3234 53.501 29.3234 53.6093 29.2151 53.6093C28.9985 53.6093 28.6735 53.6093 28.4569 53.6093C28.3486 53.6093 28.3486 53.6093 28.3486 53.501C28.3486 53.3927 28.3486 53.3927 28.3486 53.2844C28.4569 52.6346 28.4569 51.9848 28.4569 51.3349Z" fill="#008653"/>
<path fill-rule="evenodd" clip-rule="evenodd" d="M33.547 53.2844C33.3304 52.9595 33.2221 52.6346 33.0055 52.3097C33.0055 52.2014 33.0055 52.2014 33.1138 52.0931C33.3304 51.9848 33.547 51.8765 33.6553 51.6599C33.8719 51.2267 33.6553 50.6852 33.3304 50.4686C33.1138 50.3603 32.7889 50.252 32.5723 50.252C32.1391 50.252 31.5976 50.252 31.1644 50.252C30.9478 50.252 30.9478 50.252 30.9478 50.4686C30.9478 50.7935 30.9478 51.2267 30.9478 51.5516C30.9478 52.2014 30.9478 52.7429 30.9478 53.3927C30.9478 53.6094 30.9478 53.6094 31.1644 53.6094C31.381 53.6094 31.5976 53.6094 31.8142 53.6094C31.9225 53.6094 32.0308 53.6094 32.0308 53.3927C32.0308 53.0678 32.0308 52.8512 32.0308 52.5263C32.0308 52.418 32.0308 52.2014 32.0308 52.0931C32.1391 52.0931 32.1391 52.2014 32.1391 52.2014C32.3557 52.6346 32.464 52.9595 32.6806 53.3927C32.6806 53.5011 32.7889 53.6094 32.8972 53.5011C33.0055 53.5011 33.2221 53.5011 33.3304 53.5011C33.4387 53.5011 33.547 53.5011 33.6553 53.5011C33.7636 53.5011 33.7636 53.3927 33.7636 53.3927C33.6553 53.3927 33.6553 53.2844 33.547 53.2844ZM32.5723 51.335C32.5723 51.5516 32.464 51.6599 32.2474 51.6599H32.1391H32.0308H31.9225V51.335C31.9225 51.2267 31.9225 51.2267 31.9225 51.1184C31.9225 51.0101 31.9225 50.7935 31.9225 50.6852C31.9225 50.5769 31.9225 50.5769 32.0308 50.5769H32.2474C32.3557 50.5769 32.3557 50.5769 32.464 50.5769C32.5723 50.5769 32.6806 50.7935 32.7889 50.9018C32.5723 51.2267 32.6806 51.335 32.5723 51.335Z" fill="#008653"/>
<path d="M36.255 51.5527H35.2803V52.0943H36.255V51.5527Z" fill="#008653"/>
<path fill-rule="evenodd" clip-rule="evenodd" d="M40.0442 21.0107H29.972L25.8564 28.0505H44.1597L40.0442 21.0107Z" fill="url(#paint0_linear_1258_3655)"/>
<path fill-rule="evenodd" clip-rule="evenodd" d="M42.9687 29.8916H27.0481L20.6582 41.0468H49.3586L42.9687 29.8916Z" fill="url(#paint1_linear_1258_3655)"/>
<path fill-rule="evenodd" clip-rule="evenodd" d="M28.8896 19.2779L34.9546 8.77246L41.1279 19.2779H28.8896Z" fill="url(#paint2_linear_1258_3655)"/>
<path fill-rule="evenodd" clip-rule="evenodd" d="M33.9791 5.52313L31.5964 1.84082L35.0621 4.5484L38.7444 2.16573L36.0368 5.63143L38.4195 9.42205L34.9538 6.71447L31.2715 9.09714L33.9791 5.52313Z" fill="#F1D348"/>
<path fill-rule="evenodd" clip-rule="evenodd" d="M67.9873 50.3608C67.6623 50.0359 67.3374 49.711 67.0125 49.386C66.471 49.0611 65.9295 48.7362 65.388 48.5196C64.0883 47.9781 62.6804 47.5449 61.2724 47.22C61.1641 47.22 60.9475 47.1117 60.8392 47.1117C60.8392 47.0034 60.8392 47.0034 60.8392 47.0034C60.9475 46.4619 61.0558 45.812 61.1641 45.2705C61.2724 44.5124 61.2724 43.7543 61.0558 42.9961C60.9475 42.3463 60.6226 41.8048 60.1894 41.3716C59.6479 41.0467 59.1064 40.7218 58.4566 40.5052C57.6984 40.1803 56.9403 39.9637 56.1822 39.6387C54.4493 38.9889 52.7165 38.4474 50.9836 38.0142C46.4349 36.9312 40.9114 36.3896 35.0631 36.3896C29.4313 36.3896 24.1244 36.9312 19.5757 37.9059C18.8176 38.1225 18.1678 38.2308 17.4096 38.4474C15.4602 38.9889 13.5107 39.7471 11.5613 40.3969C11.0197 40.6135 10.4782 40.9384 10.045 41.155C9.7201 41.4799 9.5035 41.8048 9.28689 42.238C9.07028 42.7795 8.96198 43.3211 8.96198 43.8626C8.96198 44.729 8.96198 45.4871 9.17859 46.3535C9.17859 46.5702 9.28689 46.7868 9.28689 47.0034C9.17859 47.0034 9.07028 47.0034 9.07028 47.1117C8.20386 47.3283 7.22913 47.6532 6.2544 47.8698C5.27967 48.1947 4.41324 48.5196 3.43851 49.0611C2.897 49.386 2.46378 49.7109 2.03057 50.2525C1.92227 50.3608 1.92227 50.3608 1.81396 50.4691C1.92227 50.4691 2.03057 50.4691 2.03057 50.4691C2.78869 50.4691 3.43851 50.4691 4.19664 50.5774C4.95476 50.6857 5.71288 50.794 6.3627 51.1189C6.68761 51.3355 7.12082 51.5521 7.33743 51.7687C7.55404 51.9853 7.66234 52.2019 7.55404 52.5268C7.55404 52.7434 7.44573 53.0684 7.44573 53.285C7.12082 54.6929 6.57931 55.9925 6.03779 57.2922C5.92949 57.5088 5.82119 57.8337 5.71288 58.0503C5.92949 58.1586 6.03779 58.1586 6.14609 58.2669C6.471 57.942 6.79592 57.6171 7.12082 57.4005C7.66234 57.0756 8.31216 56.7507 8.96198 56.5341C10.5865 55.8842 12.3194 55.3427 13.9439 54.9095C15.6768 54.368 17.4096 53.8265 19.2508 53.285C19.9006 53.0684 20.5504 52.8517 21.2002 52.5268C21.5252 52.3102 21.8501 52.0936 22.0667 51.877C22.6082 51.1189 22.6082 50.4691 21.8501 49.8192C21.7418 49.7109 21.7418 49.7109 21.6335 49.6026C25.9656 48.7362 30.2977 48.4113 34.7382 48.4113C39.0703 48.4113 43.5107 48.7362 47.8428 49.6026C47.7345 49.7109 47.6262 49.7109 47.6262 49.8192C46.9764 50.3608 46.8681 51.1189 47.4096 51.877C47.6262 52.0936 47.8428 52.3102 48.0595 52.4185C48.3844 52.5268 48.601 52.7434 48.9259 52.8517C49.7923 53.1767 50.6587 53.5016 51.5252 53.7182C53.5829 54.368 55.6407 54.9095 57.6984 55.5593C58.9981 55.9925 60.406 56.4258 61.5974 56.9673C62.2472 57.2922 62.897 57.6171 63.3302 58.1586C63.4385 58.0503 63.6551 58.0503 63.7634 57.942C63.7634 57.8337 63.6551 57.7254 63.6551 57.6171C63.1136 56.4258 62.6804 55.1261 62.2472 53.8265C62.1389 53.285 61.9223 52.8517 61.9223 52.3102C61.9223 52.0936 61.9223 51.877 62.1389 51.7687C62.3555 51.5521 62.5721 51.3355 62.897 51.2272C63.3302 51.0106 63.7634 50.794 64.1966 50.6857C65.2797 50.4691 66.3627 50.3608 67.4457 50.3608C67.7706 50.4691 67.879 50.4691 67.9873 50.3608C67.9873 50.4691 67.9873 50.4691 67.9873 50.3608Z" fill="white"/>
<path fill-rule="evenodd" clip-rule="evenodd" d="M26.2913 46.5704C25.858 46.6787 25.5331 46.6787 25.2082 46.787C25.2082 46.787 25.0999 46.787 24.9916 46.6787L24.8833 46.5704C24.1252 45.8122 23.3671 44.9458 22.5006 44.1877C22.3923 44.0794 22.284 43.9711 22.284 43.7545C22.284 43.6462 22.284 43.5379 22.284 43.4296C22.3923 43.4296 22.3923 43.3213 22.5006 43.3213C22.9339 43.213 23.2588 42.9964 23.5837 42.6714C23.9086 42.3465 24.0169 41.9133 24.0169 41.4801C23.9086 40.9386 23.5837 40.722 23.1505 40.722C22.9339 40.722 22.6089 40.722 22.3923 40.8303C21.9591 40.9386 21.4176 40.9386 20.9844 41.0469H20.8761C21.201 43.1047 21.5259 45.1624 21.8508 47.2202C21.5259 47.2202 21.3093 47.3285 20.9844 47.3285C20.6595 45.0541 20.2263 42.6714 19.9014 40.3971C20.118 40.3971 20.3346 40.2888 20.5512 40.2888C21.3093 40.1805 22.0674 40.0722 22.8256 39.9639C23.1505 39.9639 23.4754 39.9639 23.692 39.9639C24.3418 40.0722 24.8833 40.5054 24.9916 41.2635C25.0999 41.805 24.9916 42.3465 24.5584 42.7798C24.3418 43.1047 24.0169 43.3213 23.692 43.5379C23.5837 43.5379 23.4754 43.6462 23.3671 43.7545C23.8003 44.296 24.3418 44.7292 24.775 45.1624C25.3165 45.5956 25.858 46.1372 26.2913 46.5704Z" fill="#B54238"/>
<path fill-rule="evenodd" clip-rule="evenodd" d="M33.4392 45.9205C33.4392 45.5956 33.4392 45.379 33.4392 45.1623C33.5475 45.1623 33.5475 45.1623 33.6558 45.2707C34.5222 45.4873 35.3886 45.7039 36.2551 45.5956C36.3634 45.5956 36.58 45.5956 36.6883 45.4873C37.3381 45.2706 37.5547 44.9457 37.5547 44.2959C37.5547 43.6461 37.2298 43.3212 36.58 43.2129C36.2551 43.2129 35.9301 43.2129 35.6052 43.2129C35.2803 43.2129 35.0637 43.2129 34.7388 43.2129C33.7641 43.1046 33.1143 42.4548 33.1143 41.48C33.1143 41.2634 33.1143 41.0468 33.2226 40.8302C33.3309 40.2887 33.6558 39.9638 34.089 39.6389C34.4139 39.4223 34.8471 39.314 35.172 39.314C36.1468 39.2057 37.1215 39.314 38.0962 39.5306H38.2045C38.2045 39.7472 38.2045 40.0721 38.2045 40.2887C38.0962 40.2887 37.9879 40.2887 37.9879 40.1804C37.3381 39.9638 36.4717 39.8555 35.7135 39.8555C35.4969 39.8555 35.172 39.9638 34.9554 39.9638C34.1973 40.1804 33.8724 40.9385 34.1973 41.5883C34.3056 41.8049 34.5222 42.0216 34.7388 42.1299C34.9554 42.2382 35.172 42.2382 35.3886 42.2382C35.8218 42.2382 36.2551 42.2382 36.6883 42.2382C37.0132 42.2382 37.2298 42.3465 37.5547 42.4548C38.0962 42.6714 38.4211 42.9963 38.5294 43.5378C38.6377 43.971 38.6377 44.4042 38.5294 44.8374C38.4211 45.379 38.0962 45.7039 37.5547 45.9205C37.2298 46.0288 36.7966 46.1371 36.4717 46.2454C35.3886 46.3537 34.4139 46.2454 33.4392 45.9205Z" fill="#B54238"/>
<path fill-rule="evenodd" clip-rule="evenodd" d="M44.9187 46.7873C44.5938 46.7873 44.3772 46.679 44.0522 46.679C45.4602 44.5129 46.7598 42.3468 48.1678 40.2891C48.4927 40.3974 48.8176 40.3974 49.1425 40.5057C49.684 42.9966 50.3338 45.4876 50.8754 47.8703C50.6587 47.8703 50.2255 47.8703 49.9006 47.762C49.684 47.0039 49.5757 46.2457 49.3591 45.4876C48.601 45.3793 47.8429 45.271 47.0847 45.0544C47.193 44.8378 47.3013 44.6212 47.4096 44.4046C47.9512 44.5129 48.601 44.6212 49.1425 44.7295C49.1425 44.5129 48.601 41.8053 48.3844 41.3721C47.193 42.9966 46.0017 44.8378 44.9187 46.7873Z" fill="#B54238"/>
<path fill-rule="evenodd" clip-rule="evenodd" d="M17.5184 41.2637C17.6267 41.4803 17.6267 41.6969 17.735 41.9135C17.4101 41.9135 17.1935 41.9135 16.9769 42.0218C16.2187 42.1301 15.5689 42.3467 14.9191 42.7799C14.3776 43.1048 13.9444 43.6463 13.8361 44.2962C13.8361 44.6211 13.8361 44.946 13.8361 45.2709C13.9444 45.9207 14.161 46.5705 14.5942 47.112C15.0274 47.6536 15.6772 47.9785 16.4353 47.9785C16.7602 47.9785 17.0852 47.9785 17.4101 47.8702C18.0599 47.6536 18.7097 47.437 19.1429 47.0037L19.2512 46.8954C19.2512 46.8954 19.2512 46.8954 19.3595 46.8954C19.4678 47.112 19.4678 47.3287 19.5761 47.5453L19.4678 47.6536C18.6014 48.1951 17.6267 48.6283 16.6519 48.7366C15.3523 48.8449 14.3776 48.4117 13.7278 47.3287C13.2945 46.5705 12.9696 45.7041 12.8613 44.8377C12.8613 43.9713 13.0779 43.3214 13.7278 42.6716C13.9444 42.455 14.161 42.2384 14.4859 42.1301C15.3523 41.5886 16.327 41.372 17.3018 41.2637C17.4101 41.2637 17.4101 41.2637 17.5184 41.2637Z" fill="#B54238"/>
<path fill-rule="evenodd" clip-rule="evenodd" d="M31.1653 39.3144C31.4902 39.3144 31.8151 39.3144 32.2483 39.2061C32.2483 39.3144 32.14 39.4227 32.14 39.531C31.3819 40.9389 30.732 42.3468 29.9739 43.7548C29.7573 43.8631 29.7573 44.0797 29.7573 44.2963C29.7573 44.9461 29.8656 45.5959 29.8656 46.2458C29.8656 46.3541 29.8656 46.3541 29.8656 46.4624C29.5407 46.4624 29.3241 46.4624 28.9992 46.5707C28.9992 46.3541 28.9992 46.1375 28.8909 45.8126C28.8909 45.271 28.7826 44.7295 28.7826 44.188C28.7826 44.0797 28.6743 43.9714 28.6743 43.8631C27.8079 42.5635 26.9414 41.2638 26.075 39.9642C26.075 39.8559 25.9667 39.8559 25.8584 39.6393C26.1833 39.6393 26.5082 39.6393 26.8331 39.531C27.5913 40.7223 28.3494 41.9136 29.1075 43.105C29.8656 41.8053 30.5154 40.5057 31.1653 39.3144Z" fill="#B54238"/>
<path fill-rule="evenodd" clip-rule="evenodd" d="M41.8858 40.1808C41.1277 40.0725 40.3695 40.0725 39.7197 39.9642C39.7197 39.7476 39.7197 39.531 39.7197 39.2061C41.4526 39.3144 43.2937 39.531 45.0266 39.6393C45.0266 39.8559 45.0266 40.0725 44.9183 40.3974C44.1602 40.2891 43.5103 40.2891 42.7522 40.1808C42.7522 40.2891 42.7522 40.2891 42.7522 40.3974C42.6439 41.1555 42.6439 42.0219 42.5356 42.7801C42.4273 43.9714 42.319 45.1627 42.2107 46.3541C42.2107 46.3541 42.2107 46.3541 42.2107 46.4624C41.8858 46.4624 41.6692 46.4624 41.3443 46.3541C41.5609 44.4046 41.6692 42.3468 41.8858 40.1808Z" fill="#B54238"/>
<path fill-rule="evenodd" clip-rule="evenodd" d="M56.0746 48.9533C55.9663 49.1699 55.858 49.3865 55.858 49.6031C54.4501 49.0616 53.0421 48.5201 51.5259 47.9786C52.284 45.8125 53.1504 43.5381 53.9086 41.3721C54.2335 41.4804 54.4501 41.5887 54.775 41.697C54.0169 43.6464 53.367 45.5959 52.6089 47.6537C53.8002 48.0869 54.8833 48.5201 56.0746 48.9533Z" fill="#B54238"/>
<path fill-rule="evenodd" clip-rule="evenodd" d="M67.0125 49.386C66.471 49.0611 65.9295 48.7362 65.388 48.5196C64.0883 47.9781 62.6804 47.5449 61.2725 47.22C61.1642 47.22 60.9475 47.1117 60.8392 47.1117C60.8392 47.0034 60.8392 47.0034 60.8392 47.0034C60.9475 46.4619 61.0558 45.812 61.1642 45.2705C61.2725 44.5124 61.2725 43.7543 61.0559 42.9961C60.9475 42.3463 60.6226 41.8048 60.1894 41.3716C59.6479 40.9384 59.1064 40.7218 58.4566 40.5052C57.6984 40.1803 56.9403 39.9637 56.1822 39.6387C54.4494 38.9889 52.7165 38.4474 50.9836 38.0142C46.4349 36.9312 40.9114 36.3896 35.0631 36.3896C29.4313 36.3896 24.1244 36.9312 19.5757 37.9059C18.8176 38.1225 18.1678 38.2308 17.4096 38.4474C15.4602 38.9889 13.5107 39.7471 11.5613 40.3969C10.9114 40.6135 10.3699 40.8301 10.045 41.155C9.7201 41.4799 9.5035 41.8048 9.28689 42.238C9.07028 42.7795 8.96198 43.3211 8.96198 43.8626C8.96198 44.729 8.96198 45.4871 9.17859 46.3535C9.17859 46.5702 9.28689 46.7868 9.28689 47.0034C9.17859 47.0034 9.07028 47.0034 9.07028 47.1117C8.20386 47.3283 7.22913 47.6532 6.2544 47.8698C5.27967 48.1947 4.41324 48.5196 3.43851 49.0611C2.897 49.386 2.46378 49.7109 2.03057 50.2525C1.92227 50.3608 1.92227 50.3608 1.81396 50.4691C1.92227 50.4691 2.03057 50.4691 2.03057 50.4691C2.78869 50.4691 3.43851 50.4691 4.19664 50.5774C4.95476 50.6857 5.71288 50.794 6.3627 51.1189C6.68761 51.3355 7.12082 51.5521 7.33743 51.7687C7.55404 51.9853 7.66234 52.2019 7.55404 52.5268C7.55404 52.7434 7.44573 53.0684 7.44573 53.285C7.12082 54.6929 6.57931 55.9925 6.03779 57.2922C5.92949 57.5088 5.82119 57.8337 5.71288 58.0503C5.92949 58.1586 6.03779 58.1586 6.1461 58.2669C6.471 57.942 6.79592 57.6171 7.12083 57.4005C7.66234 57.0756 8.31216 56.7507 8.96198 56.5341C10.5865 55.8842 12.3194 55.3427 13.9439 54.9095C15.6768 54.368 17.4096 53.8265 19.2508 53.285C19.9006 53.0684 20.5504 52.8517 21.2003 52.5268C21.5252 52.3102 21.8501 52.0936 22.0667 51.877C22.6082 51.1189 22.6082 50.4691 21.8501 49.8192C21.7418 49.7109 21.7418 49.7109 21.6335 49.6026C25.9656 48.7362 30.2977 48.4113 34.7382 48.4113C39.0703 48.4113 43.5107 48.7362 47.8428 49.6026C47.7345 49.7109 47.6262 49.7109 47.6262 49.8192C46.9764 50.3608 46.8681 51.1189 47.4096 51.877C47.6262 52.0936 47.8428 52.3102 48.0595 52.4185C48.3844 52.5268 48.601 52.7434 48.9259 52.8517C49.7923 53.1767 50.6587 53.5016 51.5252 53.7182C53.5829 54.368 55.6407 54.9095 57.6984 55.5593C58.9981 55.9925 60.406 56.4258 61.5974 56.9673C62.2472 57.2922 62.897 57.6171 63.3302 58.1586C63.4385 58.0503 63.6551 58.0503 63.7634 57.942C63.7634 57.8337 63.6551 57.7254 63.6551 57.6171C63.1136 56.4258 62.6804 55.1261 62.2472 53.8265C62.1389 53.285 61.9223 52.8517 61.9223 52.3102C61.9223 52.0936 61.9223 51.877 62.1389 51.7687C62.3555 51.5521 62.5721 51.3355 62.897 51.2272C63.3302 51.0106 63.7634 50.794 64.1966 50.6857C65.2797 50.4691 66.3627 50.3608 67.4457 50.3608C67.554 50.3608 67.6623 50.3608 67.7706 50.3608V50.2525C67.7706 50.0359 67.4457 49.711 67.0125 49.386ZM66.1461 50.0359C65.2797 50.1442 64.3049 50.2525 63.5468 50.5774C63.2219 50.6857 62.897 50.9023 62.5721 51.1189C62.3555 51.2272 62.1389 51.4438 61.9223 51.6604C61.7057 51.877 61.7057 52.0936 61.7057 52.3102C61.7057 52.7434 61.814 53.285 61.9223 53.7182C62.2472 54.8012 62.5721 55.8842 63.0053 56.859C63.0053 56.9673 63.1136 56.9673 63.1136 57.0756H63.0053C62.0306 56.5341 60.9475 56.1008 59.7562 55.6676C57.9151 55.0178 55.9656 54.4763 54.1244 53.9348C52.7165 53.5016 51.3086 53.0684 49.9006 52.6351C49.4674 52.5268 49.0342 52.3102 48.601 52.0936C48.2761 51.9853 48.0595 51.7687 47.8428 51.4438C47.6262 51.0106 47.6262 50.6857 47.9512 50.3608C48.1678 50.1442 48.4927 49.9276 48.7093 49.8192C48.8176 49.8192 48.9259 49.8192 48.9259 49.8192C50.4421 50.1442 51.9584 50.5774 53.3663 51.0106H53.4746C53.5829 50.794 53.5829 50.6857 53.6912 50.4691C53.5829 50.4691 53.4746 50.3608 53.3663 50.3608C51.9584 49.8192 50.4421 49.4943 48.9259 49.1694C47.3013 48.8445 45.6768 48.5196 43.9439 48.303C42.536 48.0864 41.2364 47.9781 39.8284 47.8698C37.6623 47.7615 35.6046 47.6532 33.4385 47.7615C32.0306 47.7615 30.6226 47.8698 29.2147 47.9781C27.0486 48.0864 24.8826 48.4113 22.7165 48.7362C20.5504 49.1694 18.3844 49.6026 16.2183 50.3608C16.11 50.3608 16.0017 50.4691 15.7851 50.4691C15.8934 50.6857 15.8934 50.794 16.0017 51.0106C16.11 51.0106 16.11 51.0106 16.11 51.0106C17.5179 50.4691 19.0342 50.1442 20.5504 49.8192C20.6587 49.8192 20.6587 49.8192 20.767 49.8192C21.0919 49.9276 21.3086 50.1442 21.5252 50.3608C21.8501 50.6857 21.8501 51.0106 21.6335 51.3355C21.4169 51.6604 21.2002 51.877 20.8753 51.9853C20.3338 52.2019 19.9006 52.4185 19.3591 52.6351C17.9512 53.0684 16.4349 53.6099 15.027 54.0431C13.2941 54.5846 11.5613 55.0178 9.82841 55.6676C8.74537 56.1008 7.66234 56.4258 6.68761 57.0756C6.68761 57.0756 6.68761 57.0756 6.57931 57.0756C6.57931 56.9673 6.57931 56.859 6.68761 56.859C7.12082 55.7759 7.44573 54.8012 7.77064 53.7182C7.87895 53.285 7.98725 52.7434 7.98725 52.3102C7.98725 52.0936 7.87895 51.7687 7.77064 51.6604C7.44573 51.3355 7.22913 51.1189 6.79592 50.9023C6.1461 50.5774 5.38797 50.3608 4.62985 50.1442C4.08833 50.0359 3.65512 50.0359 3.1136 49.9276C3.1136 49.9276 3.0053 49.9276 2.897 49.9276C3.0053 49.8193 3.1136 49.8193 3.22191 49.7109C3.87173 49.2777 4.62985 48.9528 5.38797 48.7362C6.57931 48.303 7.66234 47.9781 8.85368 47.7615C8.96198 47.7615 8.96198 47.7615 9.07028 47.7615C9.07028 47.8698 9.07028 47.8698 9.17859 47.9781C9.6118 49.2777 10.045 50.5774 10.8031 51.7687C11.0197 52.0936 11.2363 52.3102 11.3447 52.6351C11.6696 53.0684 12.1028 53.285 12.6443 53.285C13.0775 53.285 13.619 53.1767 14.0522 53.1767C15.7851 52.8517 17.5179 52.3102 19.2508 51.6604C19.2508 51.6604 19.3591 51.6604 19.3591 51.5521C19.2508 51.3355 19.2508 51.2272 19.1425 51.0106C19.0342 51.0106 18.9259 51.1189 18.8176 51.1189C17.4096 51.6604 16.0017 52.0936 14.4854 52.4185C14.0522 52.5268 13.5107 52.6351 13.0775 52.6351C12.8609 52.6351 12.6443 52.6351 12.4277 52.6351C12.2111 52.6351 11.9945 52.5268 11.7779 52.3102C11.5613 52.0936 11.453 51.877 11.2363 51.6604C10.3699 50.2525 9.82841 48.8445 9.39519 47.3283C9.07028 46.2452 8.96198 45.1622 8.96198 43.9709C8.96198 43.4294 9.07028 42.8878 9.28689 42.4546C9.5035 41.9131 9.93671 41.4799 10.5865 41.2633C12.8609 40.3969 15.2436 39.5304 17.6262 38.8806C19.4674 38.3391 21.4169 38.0142 23.258 37.6893C24.666 37.4727 26.0739 37.2561 27.5901 37.1478C28.8898 37.0395 30.1894 36.9312 31.4891 36.9312C33.2219 36.8229 34.8465 36.8229 36.5793 36.9312C38.2039 36.9312 39.9367 37.0395 41.5613 37.2561C42.7526 37.3644 43.8356 37.4727 45.027 37.6893C47.193 38.0142 49.2508 38.4474 51.3086 38.9889C53.4746 39.5304 55.5324 40.2886 57.6984 41.155C57.9151 41.2633 58.1317 41.3716 58.3483 41.3716C59.2147 41.6965 59.7562 42.3463 59.9728 43.2128C60.0811 43.7543 60.1894 44.4041 60.0811 44.9456C59.9728 46.6785 59.4313 48.4113 58.7815 50.0359C58.5649 50.5774 58.24 51.2272 57.9151 51.7687C57.8068 51.9853 57.5901 52.2019 57.4818 52.5268C57.2652 52.8517 57.0486 52.96 56.6154 52.96C56.1822 52.96 55.749 52.96 55.4241 52.8517C53.6912 52.5268 51.9584 51.9853 50.3338 51.4438C50.2255 51.4438 50.1172 51.3355 50.0089 51.3355C50.0089 51.4438 49.9006 51.5521 49.9006 51.5521C49.9006 51.6604 49.9006 51.6604 49.7923 51.7687C49.9006 51.7687 49.9006 51.877 50.0089 51.877C51.5252 52.4185 53.0414 52.9601 54.666 53.1767C55.2075 53.285 55.749 53.3933 56.3988 53.3933C56.6154 53.3933 56.832 53.3933 57.1569 53.3933C57.3735 53.3933 57.5901 53.285 57.6984 53.0683C57.9151 52.8517 58.1317 52.6351 58.3483 52.3102C58.8898 51.4438 59.323 50.5774 59.7562 49.6026C59.9728 49.0611 60.0811 48.6279 60.2977 48.0864C60.2977 47.9781 60.2977 47.9781 60.406 47.8698C60.5143 47.8698 60.6226 47.8698 60.7309 47.9781C62.1389 48.303 63.5468 48.7362 64.9548 49.2777C65.388 49.4943 65.8212 49.711 66.3627 50.0359C66.471 50.0359 66.471 50.1442 66.5793 50.2525C66.5793 49.9276 66.3627 49.9276 66.1461 50.0359Z" fill="#B34537"/>
<path d="M86.2878 20V10.5289H84.528V20H82.8002V8.86509H88.0157V20H86.2878ZM92.1383 8.86509C93.1622 8.86509 93.9088 9.13173 94.378 9.66501C94.858 10.1983 95.098 11.0569 95.098 12.2408C95.098 12.7634 95.05 13.238 94.954 13.6646C94.858 14.0912 94.6927 14.4592 94.458 14.7685C94.2234 15.0672 93.9141 15.3018 93.5301 15.4724C93.1568 15.6431 92.6822 15.7284 92.1063 15.7284H91.4023V20H89.6745V8.86509H92.1383ZM91.4023 10.4969V14.0806H92.0103C92.5436 14.0806 92.9115 13.9313 93.1142 13.6326C93.3275 13.3233 93.4341 12.8647 93.4341 12.2568C93.4341 11.7128 93.3328 11.2862 93.1302 10.9769C92.9382 10.6569 92.5756 10.4969 92.0423 10.4969H91.4023ZM99.8353 11.5848C99.8353 11.2755 99.7659 10.9982 99.6273 10.7529C99.4993 10.5076 99.2486 10.3849 98.8754 10.3849C98.6727 10.3849 98.5074 10.4329 98.3794 10.5289C98.2514 10.6143 98.1501 10.7262 98.0754 10.8649C98.0114 10.9929 97.9634 11.1422 97.9314 11.3129C97.9101 11.4728 97.8994 11.6222 97.8994 11.7608V17.3603C97.8994 17.6482 97.9688 17.9095 98.1074 18.1442C98.2567 18.3682 98.5074 18.4801 98.8594 18.4801C99.2113 18.4801 99.462 18.3628 99.6113 18.1282C99.7606 17.8829 99.8353 17.5896 99.8353 17.2483V11.5848ZM101.579 17.1523C101.579 18.1229 101.36 18.8588 100.923 19.3601C100.486 19.8507 99.7979 20.096 98.8594 20.096C97.9208 20.096 97.2382 19.8613 96.8116 19.3921C96.3849 18.9121 96.1716 18.2242 96.1716 17.3283V11.7288C96.1716 11.2915 96.2196 10.8916 96.3156 10.5289C96.4223 10.1663 96.5822 9.857 96.7956 9.60102C97.0089 9.33438 97.2862 9.13173 97.6275 8.99308C97.9794 8.84376 98.3954 8.7691 98.8754 8.7691C99.3873 8.7691 99.8139 8.83843 100.155 8.97708C100.507 9.10507 100.784 9.29705 100.987 9.55302C101.2 9.809 101.35 10.1183 101.435 10.4809C101.531 10.8436 101.579 11.2542 101.579 11.7128V17.1523ZM107.078 13.0247L104.742 20H103.078V8.86509H104.758V15.9204H104.822L107.142 8.86509H108.821V20H107.126V13.0247H107.078ZM111.734 17.1043C111.745 17.5949 111.836 17.9415 112.006 18.1442C112.177 18.3362 112.417 18.4322 112.726 18.4322C113.036 18.4322 113.27 18.2935 113.43 18.0162C113.601 17.7389 113.686 17.2963 113.686 16.6883C113.686 15.5471 113.361 14.9765 112.71 14.9765H112.038V13.5046H112.742C113.073 13.5046 113.313 13.3553 113.462 13.0567C113.622 12.7474 113.702 12.3314 113.702 11.8088C113.702 11.3715 113.611 11.0355 113.43 10.8009C113.249 10.5556 112.998 10.4329 112.678 10.4329C112.337 10.4329 112.086 10.5609 111.926 10.8169C111.777 11.0729 111.697 11.3928 111.686 11.7768L110.023 11.4088C110.076 10.5769 110.342 9.93165 110.822 9.47303C111.313 9.00375 111.953 8.7691 112.742 8.7691C114.523 8.7691 115.414 9.761 115.414 11.7448C115.414 11.9261 115.403 12.1341 115.382 12.3687C115.361 12.6034 115.313 12.8434 115.238 13.0887C115.174 13.3233 115.078 13.542 114.95 13.7446C114.833 13.9473 114.673 14.1019 114.47 14.2086V14.2566C114.662 14.3526 114.822 14.4912 114.95 14.6725C115.078 14.8432 115.179 15.0405 115.254 15.2645C115.329 15.4778 115.382 15.7124 115.414 15.9684C115.446 16.2137 115.462 16.4697 115.462 16.7363C115.462 17.8989 115.227 18.7521 114.758 19.2961C114.299 19.8294 113.617 20.096 112.71 20.096C111.889 20.096 111.238 19.8667 110.758 19.4081C110.278 18.9494 110.039 18.2935 110.039 17.4403L111.734 17.1043ZM120.474 11.9208C120.474 11.4088 120.373 11.0409 120.17 10.8169C119.968 10.5929 119.632 10.4809 119.162 10.4809H118.618V13.3607H119.178C119.626 13.3607 119.952 13.238 120.154 12.9927C120.368 12.7474 120.474 12.3901 120.474 11.9208ZM120.57 16.4803C120.57 15.9577 120.474 15.5684 120.282 15.3125C120.09 15.0565 119.754 14.9285 119.274 14.9285H118.618V18.3842H119.306C119.584 18.3842 119.802 18.3362 119.962 18.2402C120.133 18.1335 120.261 17.9949 120.346 17.8242C120.442 17.6536 120.501 17.4509 120.522 17.2163C120.554 16.9816 120.57 16.7363 120.57 16.4803ZM120.938 14.1766C121.429 14.3366 121.765 14.6405 121.946 15.0885C122.127 15.5364 122.218 16.0484 122.218 16.6243C122.218 17.7869 121.967 18.6401 121.466 19.1841C120.976 19.728 120.218 20 119.194 20H116.891V8.86509H119.322C120.304 8.86509 121.013 9.1264 121.45 9.64902C121.898 10.161 122.122 10.9076 122.122 11.8888C122.122 12.4007 122.031 12.8487 121.85 13.2327C121.679 13.6166 121.375 13.9046 120.938 14.0966V14.1766ZM127.333 11.5848C127.333 11.2755 127.263 10.9982 127.125 10.7529C126.997 10.5076 126.746 10.3849 126.373 10.3849C126.17 10.3849 126.005 10.4329 125.877 10.5289C125.749 10.6143 125.647 10.7262 125.573 10.8649C125.509 10.9929 125.461 11.1422 125.429 11.3129C125.407 11.4728 125.397 11.6222 125.397 11.7608V17.3603C125.397 17.6482 125.466 17.9095 125.605 18.1442C125.754 18.3682 126.005 18.4801 126.357 18.4801C126.709 18.4801 126.959 18.3628 127.109 18.1282C127.258 17.8829 127.333 17.5896 127.333 17.2483V11.5848ZM129.076 17.1523C129.076 18.1229 128.858 18.8588 128.42 19.3601C127.983 19.8507 127.295 20.096 126.357 20.096C125.418 20.096 124.735 19.8613 124.309 19.3921C123.882 18.9121 123.669 18.2242 123.669 17.3283V11.7288C123.669 11.2915 123.717 10.8916 123.813 10.5289C123.92 10.1663 124.08 9.857 124.293 9.60102C124.506 9.33438 124.783 9.13173 125.125 8.99308C125.477 8.84376 125.893 8.7691 126.373 8.7691C126.885 8.7691 127.311 8.83843 127.653 8.97708C128.004 9.10507 128.282 9.29705 128.484 9.55302C128.698 9.809 128.847 10.1183 128.932 10.4809C129.028 10.8436 129.076 11.2542 129.076 11.7128V17.1523ZM131.391 20V22.1118H129.935V18.5601L130.591 18.4162C130.89 18.0962 131.093 17.7282 131.199 17.3123C131.306 16.8856 131.37 16.3257 131.391 15.6324L131.583 8.86509H136.559V18.4322H137.263V22.1118H135.807V20H131.391ZM132.943 15.6164C132.922 16.2564 132.879 16.811 132.815 17.2803C132.751 17.7389 132.628 18.1229 132.447 18.4322H134.847V10.4649H133.071L132.943 15.6164ZM141.012 8.7691C141.47 8.7691 141.865 8.8331 142.196 8.96108C142.526 9.08907 142.798 9.27039 143.012 9.50503C143.236 9.72901 143.396 10.001 143.492 10.3209C143.598 10.6303 143.652 10.9716 143.652 11.3448L141.972 11.7768C141.972 11.3715 141.892 11.0409 141.732 10.7849C141.582 10.5289 141.337 10.4009 140.996 10.4009C140.793 10.4009 140.628 10.4436 140.5 10.5289C140.372 10.6143 140.271 10.7262 140.196 10.8649C140.132 10.9929 140.084 11.1369 140.052 11.2969C140.031 11.4462 140.02 11.5902 140.02 11.7288V17.3763C140.02 17.4829 140.031 17.6002 140.052 17.7282C140.073 17.8562 140.116 17.9789 140.18 18.0962C140.255 18.2028 140.351 18.2935 140.468 18.3682C140.596 18.4428 140.756 18.4801 140.948 18.4801C141.588 18.4801 141.913 18.0215 141.924 17.1043C142.212 17.1576 142.5 17.2056 142.788 17.2483C143.076 17.2803 143.364 17.3176 143.652 17.3603C143.63 18.2028 143.396 18.8694 142.948 19.3601C142.51 19.8507 141.86 20.096 140.996 20.096C140.079 20.096 139.401 19.8667 138.964 19.4081C138.527 18.9388 138.308 18.2562 138.308 17.3603V11.8088C138.308 11.3928 138.351 11.0035 138.436 10.6409C138.532 10.2676 138.687 9.94232 138.9 9.66501C139.113 9.38771 139.391 9.16906 139.732 9.00908C140.084 8.84909 140.511 8.7691 141.012 8.7691ZM147.655 10.4809V20H145.911V10.4809H144.12V8.86509H149.447V10.4809H147.655ZM153.924 11.9208C153.924 11.4088 153.823 11.0409 153.62 10.8169C153.417 10.5929 153.081 10.4809 152.612 10.4809H152.068V13.3607H152.628C153.076 13.3607 153.401 13.238 153.604 12.9927C153.817 12.7474 153.924 12.3901 153.924 11.9208ZM154.02 16.4803C154.02 15.9577 153.924 15.5684 153.732 15.3125C153.54 15.0565 153.204 14.9285 152.724 14.9285H152.068V18.3842H152.756C153.033 18.3842 153.252 18.3362 153.412 18.2402C153.583 18.1335 153.711 17.9949 153.796 17.8242C153.892 17.6536 153.951 17.4509 153.972 17.2163C154.004 16.9816 154.02 16.7363 154.02 16.4803ZM154.388 14.1766C154.879 14.3366 155.215 14.6405 155.396 15.0885C155.577 15.5364 155.668 16.0484 155.668 16.6243C155.668 17.7869 155.417 18.6401 154.916 19.1841C154.425 19.728 153.668 20 152.644 20H150.34V8.86509H152.772C153.753 8.86509 154.463 9.1264 154.9 9.64902C155.348 10.161 155.572 10.9076 155.572 11.8888C155.572 12.4007 155.481 12.8487 155.3 13.2327C155.129 13.6166 154.825 13.9046 154.388 14.0966V14.1766ZM160.782 11.5848C160.782 11.2755 160.713 10.9982 160.574 10.7529C160.446 10.5076 160.196 10.3849 159.822 10.3849C159.62 10.3849 159.455 10.4329 159.327 10.5289C159.199 10.6143 159.097 10.7262 159.023 10.8649C158.959 10.9929 158.911 11.1422 158.879 11.3129C158.857 11.4728 158.847 11.6222 158.847 11.7608V17.3603C158.847 17.6482 158.916 17.9095 159.055 18.1442C159.204 18.3682 159.455 18.4801 159.806 18.4801C160.158 18.4801 160.409 18.3628 160.558 18.1282C160.708 17.8829 160.782 17.5896 160.782 17.2483V11.5848ZM162.526 17.1523C162.526 18.1229 162.308 18.8588 161.87 19.3601C161.433 19.8507 160.745 20.096 159.806 20.096C158.868 20.096 158.185 19.8613 157.759 19.3921C157.332 18.9121 157.119 18.2242 157.119 17.3283V11.7288C157.119 11.2915 157.167 10.8916 157.263 10.5289C157.369 10.1663 157.529 9.857 157.743 9.60102C157.956 9.33438 158.233 9.13173 158.575 8.99308C158.927 8.84376 159.343 8.7691 159.822 8.7691C160.334 8.7691 160.761 8.83843 161.102 8.97708C161.454 9.10507 161.732 9.29705 161.934 9.55302C162.148 9.809 162.297 10.1183 162.382 10.4809C162.478 10.8436 162.526 11.2542 162.526 11.7128V17.1523ZM86.7358 29.0247L84.4 36H82.7362V24.8651H84.416V31.9204H84.48L86.7998 24.8651H88.4796V36H86.7838V29.0247H86.7358ZM96.8493 36V26.5289H95.0895V36H93.3616V24.8651H98.5771V36H96.8493ZM102.7 24.8651C103.724 24.8651 104.47 25.1317 104.94 25.665C105.419 26.1983 105.659 27.0569 105.659 28.2408C105.659 28.7634 105.611 29.238 105.515 29.6646C105.419 30.0912 105.254 30.4592 105.019 30.7685C104.785 31.0672 104.476 31.3018 104.092 31.4724C103.718 31.6431 103.244 31.7284 102.668 31.7284H101.964V36H100.236V24.8651H102.7ZM101.964 26.4969V30.0806H102.572C103.105 30.0806 103.473 29.9313 103.676 29.6326C103.889 29.3233 103.996 28.8647 103.996 28.2568C103.996 27.7128 103.894 27.2862 103.692 26.9769C103.5 26.6569 103.137 26.4969 102.604 26.4969H101.964ZM110.397 27.5848C110.397 27.2755 110.327 26.9982 110.189 26.7529C110.061 26.5076 109.81 26.3849 109.437 26.3849C109.234 26.3849 109.069 26.4329 108.941 26.5289C108.813 26.6143 108.712 26.7262 108.637 26.8649C108.573 26.9929 108.525 27.1422 108.493 27.3129C108.472 27.4728 108.461 27.6222 108.461 27.7608V33.3603C108.461 33.6482 108.53 33.9095 108.669 34.1442C108.818 34.3682 109.069 34.4801 109.421 34.4801C109.773 34.4801 110.023 34.3628 110.173 34.1282C110.322 33.8829 110.397 33.5896 110.397 33.2483V27.5848ZM112.141 33.1523C112.141 34.1229 111.922 34.8588 111.485 35.3601C111.047 35.8507 110.359 36.096 109.421 36.096C108.482 36.096 107.8 35.8613 107.373 35.3921C106.946 34.9121 106.733 34.2242 106.733 33.3283V27.7288C106.733 27.2915 106.781 26.8916 106.877 26.5289C106.984 26.1663 107.144 25.857 107.357 25.601C107.57 25.3344 107.848 25.1317 108.189 24.9931C108.541 24.8438 108.957 24.7691 109.437 24.7691C109.949 24.7691 110.375 24.8384 110.717 24.9771C111.069 25.1051 111.346 25.2971 111.549 25.553C111.762 25.809 111.911 26.1183 111.997 26.4809C112.093 26.8436 112.141 27.2542 112.141 27.7128V33.1523ZM114.455 36V38.1118H112.999V34.5601L113.655 34.4162C113.954 34.0962 114.157 33.7282 114.263 33.3123C114.37 32.8856 114.434 32.3257 114.455 31.6324L114.647 24.8651H119.623V34.4322H120.327V38.1118H118.871V36H114.455ZM116.007 31.6164C115.986 32.2564 115.943 32.811 115.879 33.2803C115.815 33.7389 115.693 34.1229 115.511 34.4322H117.911V26.4649H116.135L116.007 31.6164ZM125.468 36L125.036 33.6802H122.988C122.913 34.0642 122.839 34.4535 122.764 34.8481C122.7 35.2321 122.636 35.616 122.572 36H120.812C121.186 34.1335 121.559 32.2777 121.932 30.4325C122.306 28.5874 122.679 26.7316 123.052 24.8651H124.972L127.228 36H125.468ZM123.964 27.4408C123.857 28.2088 123.745 28.9767 123.628 29.7446C123.511 30.5019 123.383 31.2751 123.244 32.0644H124.764L124.044 27.4408H123.964ZM131.961 36V31.1365H131.545C131.119 31.1365 130.793 31.2591 130.569 31.5044C130.356 31.7391 130.191 32.1497 130.073 32.7363C129.967 33.2803 129.86 33.8242 129.753 34.3682C129.647 34.9121 129.535 35.4561 129.417 36H127.706L128.474 32.2884C128.591 31.7444 128.762 31.3071 128.986 30.9765C129.209 30.6459 129.524 30.4059 129.929 30.2566V30.2246C129.62 30.0966 129.343 29.8673 129.098 29.5366C128.863 29.1953 128.692 28.7527 128.586 28.2088C128.468 27.6542 128.351 27.1049 128.234 26.5609C128.116 26.0063 127.999 25.4464 127.882 24.8811H129.481L130.169 28.0328C130.233 28.3314 130.319 28.5821 130.425 28.7847C130.532 28.9767 130.649 29.1313 130.777 29.2487C130.905 29.366 131.039 29.4513 131.177 29.5046C131.327 29.5473 131.471 29.5686 131.609 29.5686H131.961V24.8651H133.689V29.5686H133.977C134.34 29.5686 134.649 29.462 134.905 29.2487C135.161 29.0353 135.353 28.6301 135.481 28.0328C135.502 27.9261 135.545 27.7235 135.609 27.4248C135.684 27.1262 135.758 26.8062 135.833 26.4649C135.908 26.113 135.977 25.7877 136.041 25.489C136.105 25.1904 136.147 24.9877 136.169 24.8811H137.769C137.662 25.4464 137.545 26.0063 137.417 26.5609C137.299 27.1049 137.182 27.6542 137.065 28.2088C136.947 28.7527 136.771 29.1953 136.537 29.5366C136.302 29.8673 136.03 30.0966 135.721 30.2246L135.705 30.2406C136.11 30.3899 136.425 30.6352 136.649 30.9765C136.883 31.3071 137.059 31.7444 137.177 32.2884L137.945 36H136.233L135.577 32.7363C135.46 32.139 135.278 31.7231 135.033 31.4884C134.788 31.2538 134.478 31.1365 134.105 31.1365H133.689V36H131.961ZM143.091 36L142.659 33.6802H140.611C140.537 34.0642 140.462 34.4535 140.387 34.8481C140.323 35.2321 140.259 35.616 140.195 36H138.436C138.809 34.1335 139.182 32.2777 139.555 30.4325C139.929 28.5874 140.302 26.7316 140.675 24.8651H142.595L144.851 36H143.091ZM141.587 27.4408C141.481 28.2088 141.369 28.9767 141.251 29.7446C141.134 30.5019 141.006 31.2751 140.867 32.0644H142.387L141.667 27.4408H141.587ZM86.7358 45.0247L84.4 52H82.7362V40.8651H84.416V47.9204H84.48L86.7998 40.8651H88.4796V52H86.7838V45.0247H86.7358ZM92.6885 40.7691C93.1471 40.7691 93.5417 40.8331 93.8723 40.9611C94.203 41.0891 94.475 41.2704 94.6883 41.505C94.9122 41.729 95.0722 42.001 95.1682 42.3209C95.2749 42.6303 95.3282 42.9716 95.3282 43.3448L93.6484 43.7768C93.6484 43.3715 93.5684 43.0409 93.4084 42.7849C93.2591 42.5289 93.0138 42.4009 92.6725 42.4009C92.4698 42.4009 92.3045 42.4436 92.1765 42.5289C92.0485 42.6143 91.9472 42.7262 91.8725 42.8649C91.8085 42.9929 91.7606 43.1369 91.7286 43.2969C91.7072 43.4462 91.6966 43.5902 91.6966 43.7288V49.3763C91.6966 49.4829 91.7072 49.6002 91.7286 49.7282C91.7499 49.8562 91.7925 49.9789 91.8565 50.0962C91.9312 50.2028 92.0272 50.2935 92.1445 50.3682C92.2725 50.4428 92.4325 50.4801 92.6245 50.4801C93.2644 50.4801 93.5897 50.0215 93.6004 49.1043C93.8883 49.1576 94.1763 49.2056 94.4643 49.2483C94.7523 49.2803 95.0402 49.3176 95.3282 49.3603C95.3069 50.2028 95.0722 50.8694 94.6243 51.3601C94.187 51.8507 93.5364 52.096 92.6725 52.096C91.7552 52.096 91.078 51.8667 90.6407 51.4081C90.2034 50.9388 89.9847 50.2562 89.9847 49.3603V43.8088C89.9847 43.3928 90.0274 43.0035 90.1127 42.6409C90.2087 42.2676 90.3634 41.9423 90.5767 41.665C90.79 41.3877 91.0673 41.1691 91.4086 41.0091C91.7606 40.8491 92.1872 40.7691 92.6885 40.7691ZM96.5801 52V40.8651H98.2919V45.5686H98.6439C99.0278 45.5686 99.3425 45.4566 99.5878 45.2327C99.8331 45.0087 100.02 44.6087 100.148 44.0328C100.169 43.9368 100.212 43.7395 100.276 43.4408C100.35 43.1315 100.42 42.8062 100.484 42.4649C100.558 42.113 100.628 41.7877 100.692 41.489C100.756 41.1797 100.798 40.9771 100.82 40.8811H102.436C102.318 41.4464 102.201 42.0063 102.084 42.5609C101.966 43.1049 101.849 43.6542 101.732 44.2088C101.614 44.7527 101.433 45.1953 101.188 45.5366C100.953 45.8673 100.681 46.0966 100.372 46.2246V46.2566C100.777 46.4059 101.092 46.6459 101.316 46.9765C101.54 47.3071 101.71 47.7444 101.828 48.2884C101.966 48.9176 102.094 49.5416 102.212 50.1602C102.34 50.7681 102.473 51.3814 102.611 52H100.884C100.777 51.4561 100.67 50.9121 100.564 50.3682C100.457 49.8242 100.345 49.2803 100.228 48.7363C100.11 48.139 99.9291 47.7231 99.6838 47.4884C99.4491 47.2538 99.1398 47.1365 98.7559 47.1365H98.2919V52H96.5801ZM106.01 46.6405L107.338 40.8651H108.954L106.714 49.4722C106.565 50.0802 106.394 50.5601 106.202 50.9121C106.021 51.2641 105.824 51.5307 105.61 51.712C105.408 51.8933 105.189 52.0107 104.955 52.064C104.72 52.1173 104.475 52.1493 104.219 52.16H103.595V50.7681H103.995C104.261 50.7681 104.475 50.6828 104.635 50.5121C104.805 50.3308 104.949 50.0535 105.066 49.6802C105.077 49.6696 105.088 49.6376 105.098 49.5842C105.109 49.5309 105.12 49.4776 105.13 49.4243C105.152 49.3603 105.168 49.3016 105.178 49.2483C105.2 49.1949 105.216 49.1576 105.226 49.1363L102.875 40.8811H104.555L105.93 46.6405H106.01ZM111.952 40.7691C112.411 40.7691 112.805 40.8331 113.136 40.9611C113.467 41.0891 113.739 41.2704 113.952 41.505C114.176 41.729 114.336 42.001 114.432 42.3209C114.539 42.6303 114.592 42.9716 114.592 43.3448L112.912 43.7768C112.912 43.3715 112.832 43.0409 112.672 42.7849C112.523 42.5289 112.277 42.4009 111.936 42.4009C111.734 42.4009 111.568 42.4436 111.44 42.5289C111.312 42.6143 111.211 42.7262 111.136 42.8649C111.072 42.9929 111.024 43.1369 110.992 43.2969C110.971 43.4462 110.96 43.5902 110.96 43.7288V49.3763C110.96 49.4829 110.971 49.6002 110.992 49.7282C111.014 49.8562 111.056 49.9789 111.12 50.0962C111.195 50.2028 111.291 50.2935 111.408 50.3682C111.536 50.4428 111.696 50.4801 111.888 50.4801C112.528 50.4801 112.853 50.0215 112.864 49.1043C113.152 49.1576 113.44 49.2056 113.728 49.2483C114.016 49.2803 114.304 49.3176 114.592 49.3603C114.571 50.2028 114.336 50.8694 113.888 51.3601C113.451 51.8507 112.8 52.096 111.936 52.096C111.019 52.096 110.342 51.8667 109.904 51.4081C109.467 50.9388 109.248 50.2562 109.248 49.3603V43.8088C109.248 43.3928 109.291 43.0035 109.376 42.6409C109.472 42.2676 109.627 41.9423 109.84 41.665C110.054 41.3877 110.331 41.1691 110.672 41.0091C111.024 40.8491 111.451 40.7691 111.952 40.7691ZM118.452 40.7691C118.91 40.7691 119.305 40.8331 119.635 40.9611C119.966 41.0891 120.238 41.2704 120.451 41.505C120.675 41.729 120.835 42.001 120.931 42.3209C121.038 42.6303 121.091 42.9716 121.091 43.3448L119.411 43.7768C119.411 43.3715 119.331 43.0409 119.171 42.7849C119.022 42.5289 118.777 42.4009 118.436 42.4009C118.233 42.4009 118.068 42.4436 117.94 42.5289C117.812 42.6143 117.71 42.7262 117.636 42.8649C117.572 42.9929 117.524 43.1369 117.492 43.2969C117.47 43.4462 117.46 43.5902 117.46 43.7288V49.3763C117.46 49.4829 117.47 49.6002 117.492 49.7282C117.513 49.8562 117.556 49.9789 117.62 50.0962C117.694 50.2028 117.79 50.2935 117.908 50.3682C118.036 50.4428 118.196 50.4801 118.388 50.4801C119.028 50.4801 119.353 50.0215 119.363 49.1043C119.651 49.1576 119.939 49.2056 120.227 49.2483C120.515 49.2803 120.803 49.3176 121.091 49.3603C121.07 50.2028 120.835 50.8694 120.387 51.3601C119.95 51.8507 119.299 52.096 118.436 52.096C117.518 52.096 116.841 51.8667 116.404 51.4081C115.966 50.9388 115.748 50.2562 115.748 49.3603V43.8088C115.748 43.3928 115.79 43.0035 115.876 42.6409C115.972 42.2676 116.126 41.9423 116.34 41.665C116.553 41.3877 116.83 41.1691 117.172 41.0091C117.524 40.8491 117.95 40.7691 118.452 40.7691ZM125.095 42.4809V52H123.351V42.4809H121.559V40.8651H126.887V42.4809H125.095ZM131.364 43.9208C131.364 43.4088 131.262 43.0409 131.06 42.8169C130.857 42.5929 130.521 42.4809 130.052 42.4809H129.508V45.3607H130.068C130.516 45.3607 130.841 45.238 131.044 44.9927C131.257 44.7474 131.364 44.3901 131.364 43.9208ZM131.46 48.4803C131.46 47.9577 131.364 47.5684 131.172 47.3125C130.98 47.0565 130.644 46.9285 130.164 46.9285H129.508V50.3842H130.196C130.473 50.3842 130.692 50.3362 130.852 50.2402C131.022 50.1335 131.15 49.9949 131.236 49.8242C131.332 49.6536 131.39 49.4509 131.412 49.2163C131.444 48.9816 131.46 48.7363 131.46 48.4803ZM131.828 46.1766C132.318 46.3366 132.654 46.6405 132.836 47.0885C133.017 47.5364 133.108 48.0484 133.108 48.6243C133.108 49.7869 132.857 50.6401 132.356 51.1841C131.865 51.728 131.108 52 130.084 52H127.78V40.8651H130.212C131.193 40.8651 131.902 41.1264 132.34 41.649C132.788 42.161 133.012 42.9076 133.012 43.8888C133.012 44.4007 132.921 44.8487 132.74 45.2327C132.569 45.6166 132.265 45.9046 131.828 46.0966V46.1766ZM134.654 52V40.8651H139.598V42.4969H136.382V45.5206H139.182V47.1685H136.382V50.3682H139.598V52H134.654ZM144.444 52V47.1365H142.444V52H140.732V40.8651H142.444V45.5206H144.444V40.8651H146.155V52H144.444ZM151.537 52V47.1365H149.537V52H147.825V40.8651H149.537V45.5206H151.537V40.8651H153.249V52H151.537ZM154.902 52V40.8651H156.614V45.1527H157.35C157.926 45.1527 158.4 45.2327 158.774 45.3926C159.158 45.542 159.462 45.7606 159.686 46.0486C159.92 46.3366 160.086 46.6885 160.182 47.1045C160.278 47.5204 160.326 47.9897 160.326 48.5123C160.326 49.6749 160.086 50.5495 159.606 51.1361C159.126 51.712 158.384 52 157.382 52H154.902ZM156.614 50.3682H157.27C157.803 50.3682 158.166 50.1975 158.358 49.8562C158.56 49.5149 158.662 49.0776 158.662 48.5443C158.662 47.9364 158.555 47.4938 158.342 47.2165C158.139 46.9285 157.771 46.7845 157.238 46.7845H156.614V50.3682ZM161.189 52V40.8651H162.917V52H161.189ZM168.38 52L167.116 48.1764H167.084L165.82 52H163.9L166.156 46.1766C165.804 45.2913 165.452 44.4114 165.1 43.5368C164.759 42.6516 164.412 41.761 164.06 40.8651H165.996C166.177 41.4304 166.358 41.9903 166.54 42.5449C166.721 43.0889 166.902 43.6435 167.084 44.2088L167.148 44.1928L168.204 40.8651H170.155L167.996 46.1766C168.38 47.1578 168.763 48.1337 169.147 49.1043C169.542 50.0642 169.931 51.0294 170.315 52H168.38ZM174.541 52V40.8651H179.485V42.4969H176.269V45.5206H179.069V47.1685H176.269V50.3682H179.485V52H174.541ZM186.17 40.8651V52H184.458V42.4969H182.778V46.7845C182.778 47.6804 182.746 48.4324 182.682 49.0403C182.619 49.6482 182.501 50.1602 182.331 50.5761C182.16 50.9921 181.931 51.3334 181.643 51.6C181.355 51.856 180.981 52.0853 180.523 52.288L179.867 51.0081C180.144 50.8481 180.368 50.6721 180.539 50.4801C180.72 50.2882 180.864 50.0535 180.971 49.7762C181.077 49.4989 181.147 49.1629 181.179 48.7683C181.221 48.363 181.243 47.8617 181.243 47.2645V40.8651H186.17ZM187.868 52V40.8651H192.812V42.4969H189.596V45.5206H192.396V47.1685H189.596V50.3682H192.812V52H187.868ZM197.881 45.0247L195.545 52H193.882V40.8651H195.561V47.9204H195.625L197.945 40.8651H199.625V52H197.929V45.0247H197.881ZM195.801 38.3373C195.812 38.4547 195.844 38.5773 195.897 38.7053C195.961 38.8226 196.036 38.9346 196.121 39.0413C196.217 39.1479 196.324 39.2386 196.441 39.3132C196.559 39.3772 196.692 39.4092 196.841 39.4092C197.001 39.4092 197.14 39.3772 197.257 39.3132C197.385 39.2386 197.492 39.1479 197.577 39.0413C197.662 38.9346 197.726 38.8226 197.769 38.7053C197.822 38.5773 197.849 38.4547 197.849 38.3373H199.113C199.092 38.5613 199.033 38.8066 198.937 39.0733C198.841 39.3292 198.697 39.5692 198.505 39.7932C198.324 40.0065 198.094 40.1878 197.817 40.3371C197.55 40.4758 197.225 40.5451 196.841 40.5451C196.425 40.5451 196.073 40.4758 195.785 40.3371C195.497 40.1878 195.263 40.0065 195.081 39.7932C194.9 39.5692 194.767 39.3292 194.681 39.0733C194.596 38.8066 194.548 38.5613 194.537 38.3373H195.801Z" fill="#B34537"/>
<defs>
<linearGradient id="paint0_linear_1258_3655" x1="25.852" y1="24.5507" x2="44.132" y2="24.5507" gradientUnits="userSpaceOnUse">
<stop stop-color="#008652"/>
<stop offset="1" stop-color="#71974E"/>
</linearGradient>
<linearGradient id="paint1_linear_1258_3655" x1="20.6174" y1="35.4823" x2="49.3681" y2="35.4823" gradientUnits="userSpaceOnUse">
<stop stop-color="#008652"/>
<stop offset="1" stop-color="#71974E"/>
</linearGradient>
<linearGradient id="paint2_linear_1258_3655" x1="28.9045" y1="13.9985" x2="41.0773" y2="13.9985" gradientUnits="userSpaceOnUse">
<stop stop-color="#008652"/>
<stop offset="1" stop-color="#71974E"/>
</linearGradient>
</defs>
</svg>
