<svg width="16" height="16" viewBox="0 0 16 16" fill="none" xmlns="http://www.w3.org/2000/svg">
<path d="M8.33932 13.3386L12.219 15.8949C12.7149 16.2217 13.3306 15.7357 13.1834 15.1337L12.0625 10.5479C12.031 10.4201 12.0347 10.2857 12.0733 10.1601C12.1119 10.0345 12.1838 9.92279 12.2808 9.83779L15.7598 6.82632C16.217 6.43062 15.981 5.64161 15.3937 5.60197L10.8503 5.29531C10.7279 5.28622 10.6106 5.24116 10.5119 5.16538C10.4132 5.0896 10.3372 4.98621 10.2928 4.86726L8.5983 0.429422C8.55224 0.30317 8.47034 0.194477 8.36348 0.117777C8.25661 0.0410773 8.12984 0 8 0C7.87016 0 7.74339 0.0410773 7.63653 0.117777C7.52967 0.194477 7.44777 0.30317 7.40171 0.429422L5.70722 4.86726C5.66282 4.98621 5.58685 5.0896 5.48814 5.16538C5.38944 5.24116 5.27206 5.28622 5.14969 5.29531L0.60631 5.60197C0.0189969 5.64161 -0.216946 6.43062 0.240183 6.82632L3.71921 9.83779C3.81616 9.92279 3.88808 10.0345 3.92669 10.1601C3.96531 10.2857 3.96905 10.4201 3.93748 10.5479L2.89796 14.8007C2.72137 15.5231 3.46023 16.1063 4.05533 15.7142L7.66069 13.3386C7.76209 13.2715 7.8798 13.2358 8 13.2358C8.12021 13.2358 8.23791 13.2715 8.33932 13.3386Z" fill="#E0E0DD"/>
</svg>
